<svg width="462" height="139" viewBox="0 0 462 139" fill="none" xmlns="http://www.w3.org/2000/svg">
<g clip-path="url(#clip0_1959:163135)">
<g opacity="0.7">
<path opacity="0.7" d="M71.8799 127.14C72.0099 129.57 67.0599 135.61 55.5999 136.86C52.5299 137.19 48.2099 136.39 47.9999 132.5C47.9299 131.14 47.7099 130.93 52.3199 124.14C51.1199 124.14 48.3799 124.14 48.3199 122.68C48.2299 120.84 54.1999 120.44 55.4599 119.99C58.0999 117.15 60.7299 113.42 64.9999 113.2C64.7399 113.94 64.4699 114.51 61.1399 118.84C70.7299 117.01 72.8399 113.98 72.6899 112.84C72.5999 111.91 71.3299 110.48 66.3899 111.08C62.3082 111.804 58.3292 113.019 54.5399 114.7C54.8099 114.81 55.1599 114.96 55.1699 115.3C55.1699 115.95 54.2399 116.25 53.6899 116.37C51.6787 116.811 49.7184 117.457 47.8399 118.3C47.4266 118.495 46.984 118.62 46.5299 118.67C45.7999 118.67 45.4399 118.3 45.3999 117.57C45.744 116.235 46.3489 114.981 47.1799 113.88C48.0099 112.64 49.1799 110.95 50.5899 110.32C55.8359 108.171 61.3615 106.78 66.9999 106.19C74.3499 105.81 76.2499 108.62 76.3699 110.93C76.7299 117.85 63.8799 120.28 58.9399 121.52L58.1199 122.34C61.1499 122.73 71.6599 123 71.8799 127.14ZM54.0699 127.3C53.5499 127.93 52.6599 128.92 52.6999 129.81C52.7999 131.65 56.1999 131.99 57.5699 131.91C61.3699 131.67 67.1199 128.59 67.0299 126.91C66.9099 124.69 58.0299 124.51 56.3299 124.6L54.0699 127.3Z" fill="white"/>
<path opacity="0.7" d="M89.9199 128.21C87.4799 131.38 82.9899 135.64 78.7599 135.86C75.6399 136.02 74.0499 133.32 73.7599 130.51C73.2999 124.92 79.1899 118.87 84.7599 118.62C86.1199 118.55 87.8499 118.8 87.9399 120.51C88.0499 122.61 86.1199 125.88 78.0599 129V129.94C78.0599 131.57 79.4499 132.05 80.8199 131.94C83.8199 131.78 87.2799 128.48 89.4499 126.56L89.9199 128.21ZM84.2699 121.61C84.2699 121.31 84.0299 121.06 83.7299 121.16C82.4535 121.657 81.3015 122.427 80.3548 123.417C79.408 124.407 78.6896 125.592 78.2499 126.89C81.9399 125.41 84.3499 122.33 84.2699 121.61V121.61Z" fill="white"/>
<path opacity="0.7" d="M111.27 129.27C111.66 129.34 112.1 129.53 112.12 130C112.14 130.47 111.12 132 110.12 133.57C109.61 134.37 108.78 135.65 107.71 135.71C106.64 135.77 106.23 135.19 106.18 134.25C106.08 132.37 108.87 127.56 109.8 125.71C109.25 125.499 108.767 125.143 108.403 124.68C108.039 124.217 107.806 123.664 107.73 123.08C107.6 120.6 112.58 119.18 114.35 118.53L120.67 109.21C113.2 109.73 107.41 112.77 106.12 112.84C105.87 112.84 105.44 112.84 105.42 112.45C105.36 111.45 107.67 108 108.3 107.03C109.103 106.048 110.218 105.37 111.46 105.11C115.146 103.88 118.987 103.173 122.87 103.01C133.46 102.45 136.59 105.72 136.87 111.01C137.34 120.11 126.62 127.1 112.87 126.28L111.27 129.27ZM118.16 117.78C119.74 117.69 121.46 117 121.5 117.78C121.54 118.56 117.93 119.04 117.27 119.55L116.4 121C117.856 121.308 119.353 121.372 120.83 121.19C129.17 120.28 134.36 113.89 133.75 111.19C133.14 108.49 125.09 108.52 123.12 108.62C123.173 109.573 122.889 110.514 122.32 111.28L118.16 117.78Z" fill="white"/>
<path opacity="0.7" d="M142.69 128.91C141.91 129.59 139.29 131.96 138.31 132.01C137.11 132.07 134.49 129.38 134.31 127.17C133.86 121.84 144.68 115.79 149.62 115.4C150.25 115.314 150.89 115.459 151.421 115.808C151.953 116.157 152.339 116.687 152.51 117.3C152.51 117.82 151.45 118.3 151.07 118.45C151.451 118.538 151.79 118.754 152.032 119.061C152.273 119.368 152.403 119.749 152.4 120.14C152.47 121.5 148.91 124.69 149.02 126.7C149.02 127.42 149.71 127.7 150.39 127.7C152.19 127.61 154.51 125.3 156.28 123.97L156.7 125.53C154.98 127.72 149.49 132.59 147.4 132.7C147.109 132.726 146.817 132.688 146.542 132.588C146.268 132.489 146.019 132.331 145.812 132.125C145.605 131.919 145.446 131.671 145.345 131.397C145.245 131.123 145.206 130.83 145.23 130.54C145.387 128.851 145.837 127.203 146.56 125.67L146.47 125.59L142.69 128.91ZM137.46 128.07C137.52 128.28 137.73 129.07 138.36 128.88C139.21 128.66 140.54 128.72 148.55 119.74L148.46 119.66C138.45 123.31 137.35 126 137.46 128.07Z" fill="white"/>
<path opacity="0.7" d="M159.18 121.66C157.81 124.09 156.08 125.3 154.34 127.23L154.07 125.36C155.101 124.398 155.993 123.298 156.72 122.09C155.82 122.09 155.55 121.73 155.5 120.83C155.34 117.75 159.5 114.45 160.56 114.4C160.757 114.383 160.953 114.445 161.105 114.573C161.257 114.7 161.352 114.882 161.37 115.08C161.376 115.495 161.294 115.908 161.13 116.29C165.13 115.53 167.44 114.89 167.89 115.38C168.482 115.987 168.882 116.756 169.04 117.59C169.11 118.92 168.33 119.59 167.39 120.46C166.2 121.6 164.22 123.8 164.31 125.51C164.357 125.837 164.527 126.135 164.785 126.343C165.042 126.551 165.369 126.653 165.7 126.63C167.53 126.54 170.08 123.63 171.43 122.48L171.82 124.04C170.29 125.96 165.62 130.96 163.19 131.04C162.366 131.029 161.579 130.693 161.002 130.105C160.425 129.516 160.104 128.724 160.11 127.9C159.96 125 162.06 122.62 163.66 120.48L163.57 120.4L159.18 121.66Z" fill="white"/>
<path opacity="0.7" d="M185.43 111.72C183.64 115.89 183.38 117.48 178.66 117.43C177.31 119.43 175.06 123.02 175.19 125.58C175.24 126.52 175.57 127.06 176.55 127.01C177.92 126.94 179.39 125.57 183.67 122.18L183.98 124.05C181.58 126.49 177.21 131.3 173.58 131.49C173.208 131.525 172.833 131.479 172.48 131.357C172.128 131.234 171.805 131.037 171.535 130.779C171.265 130.522 171.053 130.209 170.914 129.862C170.775 129.516 170.713 129.143 170.73 128.77C170.741 127.282 171.044 125.811 171.62 124.44L171.53 124.36L169.45 126.22L168.89 124.62C171.38 122.648 173.465 120.214 175.03 117.45C173.669 117.4 172.308 117.527 170.98 117.83L171.41 117.04C173.52 113.16 173.82 112.46 178.41 112.04C179.6 110.22 180.41 108.16 182.91 108.04C183.47 108.04 184.29 108.1 184.32 108.78C184.35 109.46 183.2 111.03 182.8 111.65L185.43 111.72Z" fill="white"/>
<path opacity="0.7" d="M215.63 121.58C214.931 122.744 213.944 123.707 212.763 124.376C211.582 125.046 210.248 125.398 208.89 125.4C207.19 127.33 205.17 128.81 202.48 128.95C200.26 129.06 198.09 126.95 197.72 123.07C197.47 119.87 198.94 117.65 201.23 115.69C203.415 113.734 206.142 112.486 209.05 112.11C209.99 112.02 211.42 112.37 211.48 113.53C211.48 114.17 211.02 114.45 210.56 114.73C211.86 115.01 212.16 115.89 212.23 117.17C212.33 119.05 211.55 120.59 210.83 122.3C212.73 122.54 213.83 120.86 215.11 119.8L215.63 121.58ZM202.5 120.25C201.531 121.36 200.982 122.776 200.95 124.25C201.02 125.49 201.85 125.83 202.95 125.78C204.36 125.7 205.21 124.84 206.15 123.9C205.802 123.307 205.591 122.644 205.53 121.96C205.41 119.74 207.28 116.96 207.1 116.86C205.448 117.819 203.905 118.956 202.5 120.25V120.25Z" fill="white"/>
<path opacity="0.7" d="M220.36 120.34C221.64 121 222.14 122.34 222.76 123.6L228.34 119.71L228.89 121.27C227.334 122.957 225.55 124.417 223.59 125.61C223.754 126.382 223.811 127.172 223.76 127.96C223.68 133.06 217.95 138.07 214.86 138.7C212.86 139.11 212.15 135.16 212.07 133.75C211.93 130.98 213.59 127.51 214.61 125.01C214.231 124.731 213.914 124.377 213.68 123.968C213.445 123.56 213.299 123.108 213.25 122.64C213.16 120.93 214.25 120.4 215.49 119.64C217.94 118.14 219.2 116.06 220.39 113.55C221.39 111.4 226.39 100.95 228.55 100.84C229.49 100.84 229.64 101.98 229.67 102.66C229.524 104.814 228.873 106.904 227.77 108.76L220.36 120.34ZM220.52 126.59C219.49 126.78 218.43 126.719 217.43 126.41C216.527 127.919 215.942 129.597 215.71 131.34C215.657 132.671 216.028 133.984 216.77 135.09C218.093 134.133 219.138 132.842 219.797 131.348C220.456 129.854 220.705 128.212 220.52 126.59V126.59Z" fill="white"/>
<path opacity="0.7" d="M257.11 108C255.31 112.16 255.05 113.76 250.34 113.7C248.98 115.7 246.73 119.29 246.87 121.85C246.87 122.79 247.24 123.33 248.23 123.28C249.59 123.21 251.07 121.85 255.34 118.45L255.65 120.32C253.25 122.76 248.88 127.57 245.25 127.76C244.878 127.795 244.504 127.75 244.152 127.627C243.799 127.504 243.478 127.307 243.208 127.049C242.939 126.791 242.728 126.478 242.59 126.132C242.452 125.785 242.391 125.413 242.41 125.04C242.421 123.552 242.723 122.081 243.3 120.71L243.21 120.63L241.12 122.5L240.57 120.9C243.054 118.922 245.135 116.484 246.7 113.72C245.355 113.677 244.011 113.809 242.7 114.11L243.13 113.31C245.24 109.44 245.54 108.73 250.13 108.31C251.32 106.49 252.13 104.44 254.63 104.31C255.18 104.31 256 104.37 256.04 105.05C256.08 105.73 254.91 107.29 254.52 107.91L257.11 108Z" fill="white"/>
<path opacity="0.7" d="M258.1 120.38C260.1 118.6 267.52 111.38 269.87 111.24C270.402 111.252 270.913 111.454 271.309 111.81C271.705 112.166 271.961 112.652 272.03 113.18C272.03 113.99 270.46 115.96 270.03 116.59C267.55 119.93 267.68 120.05 267.71 120.48C267.714 120.603 267.744 120.724 267.798 120.834C267.852 120.945 267.929 121.043 268.023 121.122C268.118 121.201 268.227 121.26 268.346 121.294C268.464 121.328 268.588 121.337 268.71 121.32C270.12 121.25 273.12 118.78 274.31 117.9L274.62 119.64C272.73 121.24 267.79 125.7 265.44 125.82C265.158 125.824 264.879 125.771 264.618 125.663C264.358 125.555 264.123 125.395 263.927 125.193C263.731 124.99 263.579 124.75 263.48 124.486C263.38 124.222 263.336 123.941 263.35 123.66C263.21 120.97 265.99 117.57 267.42 115.48L267.33 115.4C260.33 120.78 258.39 125.4 257.02 125.49C255.65 125.58 255.14 122.25 255.09 121.27C254.94 118.27 255.94 116.21 257.3 113.7C261.91 105.11 270.02 97.1899 271.47 97.1099C272.15 97.1099 273.32 97.3099 273.37 98.1699C273.52 101.07 260.68 115.88 258.08 118.71L258.1 120.38Z" fill="white"/>
<path opacity="0.7" d="M290.08 117.72C287.64 120.89 283.15 125.15 278.92 125.37C275.8 125.53 274.2 122.83 273.97 120.02C273.51 114.43 279.4 108.38 284.97 108.14C286.34 108.06 288.07 108.32 288.16 110.02C288.27 112.12 286.34 115.39 278.28 118.51V119.45C278.23 121.08 279.67 121.56 281.04 121.45C284.04 121.29 287.49 117.99 289.66 116.07L290.08 117.72ZM284.43 111.12C284.43 110.82 284.18 110.57 283.89 110.67C282.614 111.167 281.461 111.937 280.515 112.927C279.568 113.917 278.85 115.102 278.41 116.4C282.1 114.92 284.51 111.84 284.43 111.12Z" fill="white"/>
<path opacity="0.7" d="M318.53 116.23C316.53 117.92 312.8 121.23 310.34 121.03C306.95 120.82 305.4 118.28 305.25 115.29C305.06 111.62 307.59 106.95 309.94 104.29C312.71 100.89 320.13 94.4597 331.85 92.5197C332.177 92.4263 332.525 92.4367 332.845 92.5496C333.166 92.6624 333.444 92.8722 333.64 93.1498C334.173 93.9515 334.487 94.879 334.55 95.8397C334.61 96.9597 333.74 97.6397 332.92 98.2397C327.23 102.4 326.38 102.48 325.99 102.5C325.913 102.505 325.835 102.495 325.762 102.468C325.689 102.442 325.623 102.401 325.567 102.347C325.512 102.293 325.468 102.228 325.439 102.156C325.41 102.084 325.397 102.007 325.4 101.93C325.4 101.51 326.2 100.86 326.49 100.63L328.21 99.0897L328.12 99.0098C315.55 103.44 308.49 114.26 309.07 116.37C309.33 117.25 309.71 117.96 310.65 117.91C311.711 117.682 312.692 117.175 313.49 116.44L328.49 103.74C328.718 103.426 329.058 103.211 329.44 103.14C330.016 103.247 330.566 103.464 331.06 103.78C331.54 104.01 332.16 104.32 332.19 104.88C332.105 105.412 331.929 105.927 331.67 106.4C330.02 110.21 327.53 114.07 324.51 119.4L324.6 119.48L333.68 112.92C333.68 114.81 334.01 115.13 328.41 119.37L321.77 124.37C320.15 126.86 314.07 134.2 311.16 134.37C310.09 134.43 309.58 133.6 309.49 132.66C309.21 129.81 312.81 125.81 316.89 123.54C319.389 120.152 321.496 116.492 323.17 112.63L323.08 112.55L318.53 116.23Z" fill="white"/>
<path opacity="0.7" d="M340.92 118.52C340.15 119.21 337.53 121.52 336.55 121.62C335.35 121.68 332.73 118.99 332.55 116.78C332.1 111.45 342.92 105.4 347.87 105.01C348.5 104.922 349.141 105.068 349.671 105.42C350.202 105.771 350.585 106.305 350.75 106.92C350.75 107.43 349.69 107.92 349.31 108.06C349.692 108.147 350.032 108.362 350.274 108.669C350.516 108.977 350.645 109.358 350.64 109.75C350.72 111.12 347.16 114.3 347.26 116.31C347.26 117.03 347.96 117.31 348.64 117.31C350.43 117.22 352.75 114.91 354.53 113.58L354.95 115.14C353.22 117.33 347.74 122.2 345.65 122.31C345.359 122.335 345.067 122.297 344.792 122.198C344.518 122.099 344.269 121.941 344.062 121.735C343.855 121.529 343.696 121.281 343.595 121.007C343.495 120.733 343.456 120.44 343.48 120.15C343.632 118.464 344.082 116.818 344.81 115.29L344.72 115.2L340.92 118.52ZM335.7 117.68C335.75 117.89 335.96 118.68 336.6 118.49C337.44 118.28 338.77 118.33 346.78 109.35L346.69 109.27C336.69 112.92 335.59 115.59 335.7 117.68V117.68Z" fill="white"/>
<path opacity="0.7" d="M369.22 117.38C368.28 118.38 366.84 120.2 365.39 120.28C364.901 120.318 364.417 120.163 364.042 119.846C363.668 119.53 363.433 119.078 363.39 118.59C363.29 117.35 364.21 115.33 366.76 110.96C366.881 110.791 366.96 110.595 366.99 110.39C366.989 110.35 366.98 110.312 366.963 110.276C366.947 110.24 366.924 110.207 366.895 110.18C366.866 110.153 366.832 110.132 366.795 110.119C366.759 110.105 366.719 110.098 366.68 110.1C366.25 110.1 365.36 111.2 365.08 111.52C362.98 113.98 360.72 116.67 358.85 119.25C358.661 119.578 358.404 119.862 358.098 120.085C357.791 120.307 357.441 120.462 357.07 120.54C355.07 120.65 354.25 117.35 354.17 115.81C353.99 111.63 358.22 105.67 360.8 105.87C361.45 105.87 362.73 105.87 362.8 106.75C362.87 107.63 361.72 108.95 361.24 109.58C360.455 110.449 359.717 111.361 359.03 112.31C358.59 112.97 357.86 113.7 357.9 114.59C357.9 114.68 358.05 114.97 358.22 114.96C358.39 114.95 358.92 114.37 359.04 114.23C361.04 111.94 368.22 103.94 371.04 103.8C371.289 103.783 371.538 103.82 371.772 103.909C372.005 103.997 372.217 104.135 372.392 104.312C372.567 104.489 372.703 104.702 372.789 104.937C372.875 105.171 372.909 105.421 372.89 105.67C372.99 107.55 370.14 111.17 369.29 112.88L369.38 112.96L378.47 104.96C378.88 104.6 379.9 103.69 380.41 103.66C380.76 103.66 381.24 104.66 381.41 104.81C381.838 105.281 382.135 105.857 382.27 106.48C382.27 107.21 381.51 108.19 381.06 108.73C377.92 112.58 377.7 113.27 377.71 114.26C377.71 114.77 378.29 115.43 378.79 115.26C379.68 115 380.15 114.98 385.21 111.11L385.57 113.11C383.65 114.79 377.76 120.11 375.37 120.28C374.757 120.278 374.169 120.04 373.728 119.615C373.286 119.19 373.026 118.612 373 118C372.89 115.86 374.83 112.72 375.8 110.91L375.71 110.83L369.22 117.38Z" fill="white"/>
<path opacity="0.7" d="M400.76 111.92C398.31 115.09 393.82 119.35 389.59 119.57C386.48 119.73 384.88 117.03 384.64 114.22C384.18 108.63 390.07 102.58 395.64 102.34C397 102.26 398.73 102.52 398.82 104.22C398.93 106.32 397 109.59 388.94 112.71V113.65C388.94 115.28 390.33 115.76 391.7 115.65C394.7 115.49 398.16 112.19 400.33 110.27L400.76 111.92ZM395.1 105.32C395.1 105.02 394.86 104.77 394.56 104.87C393.284 105.369 392.133 106.14 391.187 107.13C390.24 108.119 389.521 109.304 389.08 110.6C392.77 109.12 395.18 106 395.1 105.32V105.32Z" fill="white"/>
<path opacity="0.7" d="M403.44 116.57C403.36 115.08 404.11 111.31 405.65 111.23C406.363 111.211 407.055 111.473 407.577 111.959C408.099 112.445 408.409 113.117 408.44 113.83C408.52 115.32 407.82 118.4 405.86 118.5C405.29 118.532 404.727 118.354 404.281 117.997C403.834 117.641 403.535 117.133 403.44 116.57V116.57ZM411.88 90.3899C412.22 89.5199 412.53 88.1699 413.64 88.1099C414.252 88.1651 414.86 88.262 415.46 88.3999C415.89 88.5099 417.14 88.6199 417.17 89.2999C416.972 90.3941 416.612 91.4526 416.1 92.4399L409.23 107.75C409.37 107.963 409.456 108.206 409.48 108.46C409.48 109.23 409.03 110.37 408.17 110.46C407.31 110.55 405.54 109.31 405.49 108.28C405.663 106.973 406.03 105.699 406.58 104.5L411.88 90.3899Z" fill="white"/>
</g>
<path d="M88.37 23.4299L60.7 73.5999C59.7738 75.2576 58.6707 76.81 57.41 78.2299C55.9222 79.8298 54.1262 81.1121 52.13 81.9999C49.5676 83.1112 46.7917 83.6438 44 83.5599C41.2411 83.6065 38.5071 83.0324 36 81.8799C33.8903 80.9358 31.9796 79.5987 30.37 77.9399C29.1908 76.7744 28.2111 75.4231 27.47 73.9399L0 23.4299H19.06L41 62.8999C41.4103 63.6984 41.8817 64.4641 42.41 65.1899C42.6053 65.3945 42.8445 65.552 43.1095 65.6507C43.3745 65.7495 43.6585 65.7868 43.94 65.7599C44.2433 65.7908 44.5497 65.7518 44.8357 65.6461C45.1216 65.5404 45.3797 65.3707 45.59 65.1499C46.1215 64.4403 46.5932 63.6877 47 62.8999L69.07 23.4299H88.37Z" fill="white"/>
<path d="M209.44 23.4299L181.77 73.5999C180.844 75.2576 179.741 76.81 178.48 78.2299C176.992 79.8298 175.196 81.1121 173.2 81.9999C170.64 83.1215 167.864 83.6644 165.07 83.5899C162.311 83.6365 159.577 83.0624 157.07 81.9099C154.96 80.9658 153.05 79.6287 151.44 77.9699C150.261 76.8044 149.281 75.4531 148.54 73.9699L121.07 23.4299H140.13L162.05 62.8999C162.46 63.6984 162.932 64.4641 163.46 65.1899C163.655 65.3945 163.895 65.552 164.16 65.6507C164.425 65.7495 164.709 65.7868 164.99 65.7599C165.293 65.7908 165.6 65.7518 165.886 65.6461C166.172 65.5404 166.43 65.3707 166.64 65.1499C167.172 64.4403 167.643 63.6877 168.05 62.8999L190.14 23.4299H209.44Z" fill="white"/>
<path d="M293.49 81.9999H275.94V77.8899C275.305 79.0706 274.338 80.0402 273.16 80.6799C272.056 81.4574 270.758 81.9143 269.41 81.9999H221.85C220.467 81.9624 219.111 81.5986 217.895 80.9383C216.679 80.278 215.635 79.3397 214.85 78.1999C214.04 77.0222 213.601 75.6291 213.59 74.1999C213.59 71.3099 213.52 67.6699 213.48 63.2599C213.44 58.8499 213.42 56.5199 213.42 56.2599C213.233 53.4142 214.158 50.6068 216 48.4299C216.76 47.5448 217.702 46.8339 218.762 46.3455C219.821 45.8572 220.973 45.6029 222.14 45.5999H267.14C269.071 45.5584 270.967 46.1137 272.57 47.1899C273.884 48.0201 275.023 49.1006 275.92 50.3699V44.9999C275.89 43.7986 275.545 42.6261 274.92 41.5999C274.224 40.4267 273.248 39.4441 272.08 38.7399C270.786 37.9629 269.299 37.5677 267.79 37.5999H214V23.4299H274.7C277.244 23.4301 279.745 24.077 281.97 25.3099C284.243 26.5695 286.274 28.2217 287.97 30.1899C289.61 32.0552 290.968 34.1508 292 36.4099C292.883 38.2068 293.377 40.1694 293.45 42.1699L293.49 81.9999ZM272.59 63.7899C272.575 63.0445 272.282 62.3315 271.77 61.7899C271.213 61.1659 270.532 60.6652 269.77 60.3199C269.168 60.0052 268.508 59.8179 267.83 59.7699H234.63C234.007 59.7086 233.379 59.8209 232.816 60.0945C232.253 60.3681 231.777 60.7922 231.44 61.3199C230.958 62.0419 230.653 62.8677 230.55 63.7299C230.527 64.2679 230.618 64.8047 230.818 65.3046C231.018 65.8046 231.322 66.2563 231.71 66.6299C232.32 67.2884 233.163 67.683 234.06 67.7299H268.75C269.699 67.6473 270.584 67.2205 271.24 66.5299C271.657 66.1974 271.994 65.7763 272.227 65.2971C272.461 64.818 272.585 64.2929 272.59 63.7599V63.7899Z" fill="white"/>
<path d="M99.37 18.38C97.8651 17.5181 96.616 16.2724 95.7499 14.77C94.8485 13.2593 94.3813 11.5291 94.3999 9.76998C94.3846 8.03648 94.8521 6.33292 95.7499 4.84998C96.6303 3.37165 97.8771 2.14546 99.37 1.28998C100.889 0.412975 102.616 -0.0426971 104.37 -0.0300158C106.086 -0.0408514 107.773 0.415442 109.25 1.28998C110.727 2.16176 111.958 3.39341 112.83 4.86998C113.714 6.351 114.177 8.04516 114.17 9.76998C114.187 11.5276 113.724 13.2565 112.83 14.77C111.968 16.2616 110.734 17.5052 109.25 18.38C107.773 19.2545 106.086 19.7108 104.37 19.7C102.616 19.7127 100.889 19.257 99.37 18.38V18.38Z" fill="#FF7600"/>
<path d="M112.58 23.6399H95.97V84.0699H112.58V23.6399Z" fill="white"/>
<path d="M378.91 56.9999C378.281 55.4911 377.461 54.0694 376.47 52.7699L374.33 50.9199C374.65 50.4299 374.98 49.9199 375.33 49.4299C376.027 48.4344 376.56 47.3338 376.91 46.1699C377.2 45.1699 377.48 44.2299 377.74 43.2699L377.8 43.0799V42.8699C377.8 41.3499 377.8 39.8699 377.68 38.2999C377.593 36.6556 377.182 35.0446 376.47 33.5599C375.827 32.2149 375.071 30.9269 374.21 29.7099L374.1 29.5699C373.051 28.3979 371.834 27.387 370.49 26.5699C369.221 25.8094 367.881 25.1731 366.49 24.6699C365.13 24.1799 363.78 23.7699 362.49 23.4399H324.18L320.54 24.4399C319.309 24.7836 318.121 25.2668 317 25.8799C315.875 26.5304 314.811 27.2801 313.82 28.1199L313.69 28.2399C312.844 29.1495 312.078 30.1297 311.4 31.1699C310.709 32.2396 310.132 33.3792 309.68 34.5699C309.217 35.7405 308.882 36.9575 308.68 38.1999V38.3099C308.566 39.9114 308.623 41.5206 308.85 43.1099C309.078 44.7367 309.582 46.3127 310.34 47.7699C310.86 48.7693 311.469 49.7198 312.16 50.6099C311.086 51.5845 310.126 52.6782 309.3 53.8699C308.453 55.0931 307.761 56.4165 307.24 57.8099C306.702 59.1878 306.365 60.636 306.24 62.1099C306.13 63.8382 306.13 65.5717 306.24 67.2999C306.353 69.1389 306.811 70.9401 307.59 72.6099C308.362 74.2476 309.354 75.7718 310.54 77.1399L310.61 77.2099C311.786 78.3744 313.107 79.3827 314.54 80.2099C315.92 81.0163 317.39 81.6574 318.92 82.1199C320.437 82.5773 321.994 82.8888 323.57 83.0499H362.82H362.91C364.2 82.8899 365.5 82.6699 366.78 82.3999C368.144 82.1125 369.47 81.6661 370.73 81.0699C372.04 80.4558 373.264 79.6725 374.37 78.7399C375.561 77.6633 376.618 76.4479 377.52 75.1199C378.432 73.7847 379.133 72.3177 379.6 70.7699C380.049 69.2959 380.334 67.7766 380.45 66.2399V66.1199C380.449 64.5605 380.335 63.0031 380.11 61.4599C379.892 59.9302 379.489 58.4326 378.91 56.9999V56.9999ZM360.71 34.5999C361.21 34.6999 361.71 34.8099 362.25 34.9499C362.736 35.0828 363.203 35.2777 363.64 35.5299C364.131 35.8321 364.602 36.1661 365.05 36.5299C365.357 36.8368 365.635 37.1716 365.88 37.5299C366.074 37.8017 366.216 38.1068 366.3 38.4299L366.67 39.7699C366.48 43.1499 364.94 44.8999 361.67 45.4299L324.8 45.5899C324.34 45.4599 323.88 45.2999 323.44 45.1299C322.979 44.9608 322.531 44.7569 322.1 44.5199C321.76 44.3299 321.39 44.0899 321 43.8199L320 41.7199V39.7199C319.981 39.1989 320.076 38.68 320.28 38.1999C320.51 37.7209 320.781 37.2625 321.09 36.8299C321.54 36.4799 322.03 36.1199 322.56 35.7699C323.035 35.4484 323.549 35.1896 324.09 34.9999C324.619 34.8258 325.161 34.6921 325.71 34.5999H360.71ZM322.24 57.7699C322.87 57.5299 323.48 57.2699 324.07 57.0099H362.52L364.01 57.4799C364.512 57.6444 365 57.8484 365.47 58.0899C365.906 58.3279 366.32 58.6022 366.71 58.9099C367.173 59.3768 367.607 59.871 368.01 60.3899C368.325 60.7959 368.568 61.2524 368.73 61.7399C368.922 62.3533 369.059 62.9824 369.14 63.6199C369.175 65.0223 369.054 66.4242 368.78 67.7999C368.19 68.8567 367.367 69.7658 366.375 70.4587C365.382 71.1515 364.245 71.6101 363.05 71.7999L323.49 71.7199C322.98 71.6299 322.49 71.5099 321.96 71.3799C321.472 71.2472 321.004 71.0487 320.57 70.7899C320.077 70.4904 319.606 70.1563 319.16 69.7899C318.79 69.4376 318.482 69.0251 318.25 68.5699C318.025 68.0975 317.845 67.6054 317.71 67.0999C317.565 66.5299 317.452 65.9524 317.37 65.3699C317.372 64.6998 317.429 64.0309 317.54 63.3699C317.647 62.7407 317.828 62.1264 318.08 61.5399C318.32 60.9599 318.59 60.3899 318.9 59.8099C319.35 59.3851 319.846 59.0127 320.38 58.6999C320.973 58.3381 321.595 58.027 322.24 57.7699Z" fill="#FF7600"/>
<path d="M461.17 61.4799C460.942 59.9415 460.525 58.4369 459.93 57C459.301 55.4933 458.485 54.0721 457.5 52.77L455.35 50.9199C455.67 50.4399 456 49.92 456.35 49.43C457.047 48.4344 457.58 47.3338 457.93 46.1699C458.22 45.1699 458.5 44.23 458.77 43.27L458.82 43.08V42.8699C458.82 41.3699 458.82 39.8699 458.7 38.2999C458.613 36.6556 458.202 35.0447 457.49 33.56C456.851 32.2129 456.095 30.9246 455.23 29.7099L455.12 29.58C454.077 28.401 452.86 27.3892 451.51 26.58C450.242 25.8171 448.902 25.1807 447.51 24.68C446.15 24.19 444.81 23.78 443.51 23.45H405.2L401.57 24.45C400.328 24.7853 399.13 25.2653 398 25.8799C396.873 26.527 395.809 27.2769 394.82 28.12L394.69 28.25C393.842 29.154 393.076 30.1311 392.4 31.17C391.71 32.2407 391.134 33.3801 390.68 34.57C390.234 35.7424 389.916 36.9594 389.73 38.2V38.31C389.62 39.9115 389.677 41.5201 389.9 43.11C390.127 44.7383 390.634 46.315 391.4 47.77C391.918 48.7685 392.523 49.719 393.21 50.61C392.137 51.5852 391.177 52.6788 390.35 53.8699C389.507 55.0953 388.815 56.4183 388.29 57.81C387.756 59.1892 387.42 60.6368 387.29 62.11C387.18 63.8382 387.18 65.5717 387.29 67.3C387.407 69.1395 387.868 70.9407 388.65 72.61C389.414 74.2517 390.408 75.7769 391.6 77.1399L391.67 77.2099C392.844 78.3769 394.165 79.3854 395.6 80.2099C396.984 81.0306 398.461 81.682 400 82.15C401.52 82.6083 403.081 82.9197 404.66 83.08H443.9H444C445.28 82.92 446.58 82.7 447.86 82.43C449.224 82.1425 450.55 81.6961 451.81 81.0999C453.12 80.4858 454.344 79.7025 455.45 78.7699C456.641 77.6933 457.698 76.478 458.6 75.15C459.511 73.8128 460.215 72.3464 460.69 70.8C461.131 69.3238 461.416 67.8055 461.54 66.2699V66.15C461.529 64.5864 461.405 63.0258 461.17 61.4799ZM441.74 34.5499C442.24 34.6499 442.74 34.76 443.27 34.9C443.757 35.0311 444.224 35.2261 444.66 35.4799C445.153 35.7844 445.627 36.1183 446.08 36.4799C446.379 36.7916 446.653 37.1259 446.9 37.4799C447.091 37.7547 447.236 38.0586 447.33 38.38L447.7 39.72C447.51 43.1 445.96 44.85 442.7 45.38L405.84 45.54C405.378 45.4122 404.924 45.2586 404.48 45.08C404.019 44.9086 403.572 44.7047 403.14 44.47C402.8 44.28 402.42 44.04 402.03 43.77L401.03 41.6699V39.6699C401.014 39.1481 401.113 38.6291 401.32 38.15C401.551 37.6731 401.818 37.215 402.12 36.7799C402.57 36.4299 403.06 36.07 403.59 35.72C404.066 35.4004 404.58 35.1417 405.12 34.95C405.649 34.7768 406.191 34.6431 406.74 34.5499H441.74ZM403.26 57.77C403.89 57.53 404.5 57.2699 405.1 57.0099H443.55L445.03 57.4799C445.535 57.6446 446.027 57.8486 446.5 58.09C446.931 58.3305 447.342 58.6047 447.73 58.91C448.179 59.3804 448.603 59.8745 449 60.3899C449.306 60.7964 449.546 61.2486 449.71 61.7299C449.909 62.3447 450.047 62.9779 450.12 63.6199C450.162 65.022 450.044 66.4243 449.77 67.8C449.176 68.8535 448.352 69.76 447.36 70.4523C446.369 71.1447 445.234 71.6053 444.04 71.8L404.47 71.72C403.97 71.63 403.47 71.5099 402.95 71.3799C402.459 71.2472 401.988 71.0487 401.55 70.79C401.057 70.4905 400.586 70.1563 400.14 69.79C399.773 69.435 399.466 69.023 399.23 68.57C399.004 68.099 398.827 67.6065 398.7 67.0999C398.551 66.5304 398.434 65.9528 398.35 65.37C398.36 64.6997 398.42 64.0312 398.53 63.3699C398.638 62.7421 398.816 62.1284 399.06 61.54C399.3 60.96 399.58 60.39 399.88 59.81C400.33 59.3851 400.826 59.0127 401.36 58.7C401.967 58.3381 402.602 58.027 403.26 57.77V57.77Z" fill="#FF7600"/>
</g>
<defs>
<clipPath id="clip0_1959:163135">
<rect width="461.5" height="138.73" fill="white"/>
</clipPath>
</defs>
</svg>
