<svg width="462" height="151" viewBox="0 0 462 151" fill="none" xmlns="http://www.w3.org/2000/svg">
<g clip-path="url(#clip0_1959:163185)">
<path d="M88.37 23.4299L60.7 73.5999C59.7738 75.2576 58.6707 76.81 57.41 78.2299C55.9222 79.8298 54.1262 81.1121 52.13 81.9999C49.5676 83.1112 46.7917 83.6438 44 83.5599C41.2411 83.6065 38.5071 83.0324 36 81.8799C33.8903 80.9358 31.9796 79.5987 30.37 77.9399C29.1908 76.7744 28.2111 75.4231 27.47 73.9399L0 23.4299H19.06L41 62.8999C41.4103 63.6984 41.8817 64.4641 42.41 65.1899C42.6053 65.3945 42.8445 65.552 43.1095 65.6507C43.3745 65.7495 43.6585 65.7868 43.94 65.7599C44.2433 65.7908 44.5497 65.7518 44.8357 65.6461C45.1216 65.5404 45.3797 65.3707 45.59 65.1499C46.1215 64.4403 46.5932 63.6877 47 62.8999L69.07 23.4299H88.37Z" fill="white"/>
<path d="M209.44 23.4299L181.77 73.5999C180.844 75.2576 179.741 76.81 178.48 78.2299C176.992 79.8298 175.196 81.1121 173.2 81.9999C170.64 83.1215 167.864 83.6644 165.07 83.5899C162.311 83.6365 159.577 83.0624 157.07 81.9099C154.96 80.9658 153.05 79.6287 151.44 77.9699C150.261 76.8044 149.281 75.4531 148.54 73.9699L121.07 23.4299H140.13L162.05 62.8999C162.46 63.6984 162.932 64.4641 163.46 65.1899C163.655 65.3945 163.895 65.552 164.16 65.6507C164.425 65.7495 164.709 65.7868 164.99 65.7599C165.293 65.7908 165.6 65.7518 165.886 65.6461C166.172 65.5404 166.43 65.3707 166.64 65.1499C167.172 64.4403 167.643 63.6877 168.05 62.8999L190.14 23.4299H209.44Z" fill="white"/>
<path d="M293.49 81.9999H275.94V77.8899C275.305 79.0706 274.338 80.0402 273.16 80.6799C272.056 81.4574 270.758 81.9143 269.41 81.9999H221.85C220.467 81.9624 219.111 81.5986 217.895 80.9383C216.679 80.278 215.635 79.3397 214.85 78.1999C214.04 77.0222 213.601 75.6291 213.59 74.1999C213.59 71.3099 213.52 67.6699 213.48 63.2599C213.44 58.8499 213.42 56.5199 213.42 56.2599C213.233 53.4142 214.158 50.6068 216 48.4299C216.76 47.5448 217.702 46.8339 218.762 46.3455C219.821 45.8572 220.973 45.6029 222.14 45.5999H267.14C269.071 45.5584 270.967 46.1137 272.57 47.1899C273.884 48.0201 275.023 49.1006 275.92 50.3699V44.9999C275.89 43.7986 275.545 42.6261 274.92 41.5999C274.224 40.4267 273.248 39.4441 272.08 38.7399C270.786 37.9629 269.299 37.5677 267.79 37.5999H214V23.4299H274.7C277.244 23.4301 279.745 24.077 281.97 25.3099C284.243 26.5695 286.274 28.2217 287.97 30.1899C289.61 32.0552 290.968 34.1508 292 36.4099C292.883 38.2068 293.377 40.1694 293.45 42.1699L293.49 81.9999ZM272.59 63.7899C272.575 63.0445 272.282 62.3315 271.77 61.7899C271.213 61.1659 270.532 60.6652 269.77 60.3199C269.168 60.0052 268.508 59.8179 267.83 59.7699H234.63C234.007 59.7086 233.379 59.8209 232.816 60.0945C232.253 60.3681 231.777 60.7922 231.44 61.3199C230.958 62.0419 230.653 62.8677 230.55 63.7299C230.527 64.2679 230.618 64.8047 230.818 65.3046C231.018 65.8046 231.322 66.2563 231.71 66.6299C232.32 67.2884 233.163 67.683 234.06 67.7299H268.75C269.699 67.6473 270.584 67.2205 271.24 66.5299C271.657 66.1974 271.994 65.7763 272.227 65.2971C272.461 64.818 272.585 64.2929 272.59 63.7599V63.7899Z" fill="white"/>
<path d="M99.37 18.38C97.8651 17.5181 96.616 16.2724 95.7499 14.77C94.8485 13.2593 94.3813 11.5291 94.3999 9.76998C94.3846 8.03648 94.8521 6.33292 95.7499 4.84998C96.6303 3.37165 97.8771 2.14546 99.37 1.28998C100.889 0.412975 102.616 -0.0426971 104.37 -0.0300158C106.086 -0.0408514 107.773 0.415442 109.25 1.28998C110.727 2.16176 111.958 3.39341 112.83 4.86998C113.714 6.351 114.177 8.04516 114.17 9.76998C114.187 11.5276 113.724 13.2565 112.83 14.77C111.968 16.2616 110.734 17.5052 109.25 18.38C107.773 19.2545 106.086 19.7108 104.37 19.7C102.616 19.7127 100.889 19.257 99.37 18.38V18.38Z" fill="#FF7600"/>
<path d="M112.58 23.6399H95.97V84.0699H112.58V23.6399Z" fill="white"/>
<path d="M378.91 56.9999C378.281 55.4911 377.461 54.0694 376.47 52.7699L374.33 50.9199C374.65 50.4299 374.98 49.9199 375.33 49.4299C376.027 48.4344 376.56 47.3338 376.91 46.1699C377.2 45.1699 377.48 44.2299 377.74 43.2699L377.8 43.0799V42.8699C377.8 41.3499 377.8 39.8699 377.68 38.2999C377.593 36.6556 377.182 35.0446 376.47 33.5599C375.827 32.2149 375.071 30.9269 374.21 29.7099L374.1 29.5699C373.051 28.3979 371.834 27.387 370.49 26.5699C369.221 25.8094 367.881 25.1731 366.49 24.6699C365.13 24.1799 363.78 23.7699 362.49 23.4399H324.18L320.54 24.4399C319.309 24.7836 318.121 25.2668 317 25.8799C315.875 26.5304 314.811 27.2801 313.82 28.1199L313.69 28.2399C312.844 29.1495 312.078 30.1297 311.4 31.1699C310.709 32.2396 310.132 33.3792 309.68 34.5699C309.217 35.7405 308.882 36.9575 308.68 38.1999V38.3099C308.566 39.9114 308.623 41.5206 308.85 43.1099C309.078 44.7367 309.582 46.3127 310.34 47.7699C310.86 48.7693 311.469 49.7198 312.16 50.6099C311.086 51.5845 310.126 52.6782 309.3 53.8699C308.453 55.0931 307.761 56.4165 307.24 57.8099C306.702 59.1878 306.365 60.636 306.24 62.1099C306.13 63.8382 306.13 65.5717 306.24 67.2999C306.353 69.1389 306.811 70.9401 307.59 72.6099C308.362 74.2476 309.354 75.7718 310.54 77.1399L310.61 77.2099C311.786 78.3744 313.107 79.3827 314.54 80.2099C315.92 81.0163 317.39 81.6574 318.92 82.1199C320.437 82.5773 321.994 82.8888 323.57 83.0499H362.82H362.91C364.2 82.8899 365.5 82.6699 366.78 82.3999C368.144 82.1125 369.47 81.6661 370.73 81.0699C372.04 80.4558 373.264 79.6725 374.37 78.7399C375.561 77.6633 376.618 76.4479 377.52 75.1199C378.432 73.7847 379.133 72.3177 379.6 70.7699C380.049 69.2959 380.334 67.7766 380.45 66.2399V66.1199C380.449 64.5605 380.335 63.0031 380.11 61.4599C379.892 59.9302 379.489 58.4326 378.91 56.9999V56.9999ZM360.71 34.5999C361.21 34.6999 361.71 34.8099 362.25 34.9499C362.736 35.0828 363.203 35.2777 363.64 35.5299C364.131 35.8321 364.602 36.1661 365.05 36.5299C365.357 36.8368 365.635 37.1716 365.88 37.5299C366.074 37.8017 366.216 38.1068 366.3 38.4299L366.67 39.7699C366.48 43.1499 364.94 44.8999 361.67 45.4299L324.8 45.5899C324.34 45.4599 323.88 45.2999 323.44 45.1299C322.979 44.9608 322.531 44.7569 322.1 44.5199C321.76 44.3299 321.39 44.0899 321 43.8199L320 41.7199V39.7199C319.981 39.1989 320.076 38.68 320.28 38.1999C320.51 37.7209 320.781 37.2625 321.09 36.8299C321.54 36.4799 322.03 36.1199 322.56 35.7699C323.035 35.4484 323.549 35.1896 324.09 34.9999C324.619 34.8258 325.161 34.6921 325.71 34.5999H360.71ZM322.24 57.7699C322.87 57.5299 323.48 57.2699 324.07 57.0099H362.52L364.01 57.4799C364.512 57.6444 365 57.8484 365.47 58.0899C365.906 58.3279 366.32 58.6022 366.71 58.9099C367.173 59.3768 367.607 59.871 368.01 60.3899C368.325 60.7959 368.568 61.2524 368.73 61.7399C368.922 62.3533 369.059 62.9824 369.14 63.6199C369.175 65.0223 369.054 66.4242 368.78 67.7999C368.19 68.8567 367.367 69.7658 366.375 70.4587C365.382 71.1515 364.245 71.6101 363.05 71.7999L323.49 71.7199C322.98 71.6299 322.49 71.5099 321.96 71.3799C321.472 71.2472 321.004 71.0487 320.57 70.7899C320.077 70.4904 319.606 70.1563 319.16 69.7899C318.79 69.4376 318.482 69.0251 318.25 68.5699C318.025 68.0975 317.845 67.6054 317.71 67.0999C317.565 66.5299 317.452 65.9524 317.37 65.3699C317.372 64.6998 317.429 64.0309 317.54 63.3699C317.647 62.7407 317.828 62.1264 318.08 61.5399C318.32 60.9599 318.59 60.3899 318.9 59.8099C319.35 59.3851 319.846 59.0127 320.38 58.6999C320.973 58.3381 321.595 58.027 322.24 57.7699Z" fill="#FF7600"/>
<path d="M461.17 61.4799C460.942 59.9415 460.525 58.4369 459.93 57C459.301 55.4933 458.485 54.0721 457.5 52.77L455.35 50.9199C455.67 50.4399 456 49.92 456.35 49.43C457.047 48.4344 457.58 47.3338 457.93 46.1699C458.22 45.1699 458.5 44.23 458.77 43.27L458.82 43.08V42.8699C458.82 41.3699 458.82 39.8699 458.7 38.2999C458.613 36.6556 458.202 35.0447 457.49 33.56C456.851 32.2129 456.095 30.9246 455.23 29.7099L455.12 29.58C454.077 28.401 452.86 27.3892 451.51 26.58C450.242 25.8171 448.902 25.1807 447.51 24.68C446.15 24.19 444.81 23.78 443.51 23.45H405.2L401.57 24.45C400.328 24.7853 399.13 25.2653 398 25.8799C396.873 26.527 395.809 27.2769 394.82 28.12L394.69 28.25C393.842 29.154 393.076 30.1311 392.4 31.17C391.71 32.2407 391.134 33.3801 390.68 34.57C390.234 35.7424 389.916 36.9594 389.73 38.2V38.31C389.62 39.9115 389.677 41.5201 389.9 43.11C390.127 44.7383 390.634 46.315 391.4 47.77C391.918 48.7685 392.523 49.719 393.21 50.61C392.137 51.5852 391.177 52.6788 390.35 53.8699C389.507 55.0953 388.815 56.4183 388.29 57.81C387.756 59.1892 387.42 60.6368 387.29 62.11C387.18 63.8382 387.18 65.5717 387.29 67.3C387.407 69.1395 387.868 70.9407 388.65 72.61C389.414 74.2517 390.408 75.7769 391.6 77.1399L391.67 77.2099C392.844 78.3769 394.165 79.3854 395.6 80.2099C396.984 81.0306 398.461 81.682 400 82.15C401.52 82.6083 403.081 82.9197 404.66 83.08H443.9H444C445.28 82.92 446.58 82.7 447.86 82.43C449.224 82.1425 450.55 81.6961 451.81 81.0999C453.12 80.4858 454.344 79.7025 455.45 78.7699C456.641 77.6933 457.698 76.478 458.6 75.15C459.511 73.8128 460.215 72.3464 460.69 70.8C461.131 69.3238 461.416 67.8055 461.54 66.2699V66.15C461.529 64.5864 461.405 63.0258 461.17 61.4799ZM441.74 34.5499C442.24 34.6499 442.74 34.76 443.27 34.9C443.757 35.0311 444.224 35.2261 444.66 35.4799C445.153 35.7844 445.627 36.1183 446.08 36.4799C446.379 36.7916 446.653 37.1259 446.9 37.4799C447.091 37.7547 447.236 38.0586 447.33 38.38L447.7 39.72C447.51 43.1 445.96 44.85 442.7 45.38L405.84 45.54C405.378 45.4122 404.924 45.2586 404.48 45.08C404.019 44.9086 403.572 44.7047 403.14 44.47C402.8 44.28 402.42 44.04 402.03 43.77L401.03 41.6699V39.6699C401.014 39.1481 401.113 38.6291 401.32 38.15C401.551 37.6731 401.818 37.215 402.12 36.7799C402.57 36.4299 403.06 36.07 403.59 35.72C404.066 35.4004 404.58 35.1417 405.12 34.95C405.649 34.7768 406.191 34.6431 406.74 34.5499H441.74ZM403.26 57.77C403.89 57.53 404.5 57.2699 405.1 57.0099H443.55L445.03 57.4799C445.535 57.6446 446.027 57.8486 446.5 58.09C446.931 58.3305 447.342 58.6047 447.73 58.91C448.179 59.3804 448.603 59.8745 449 60.3899C449.306 60.7964 449.546 61.2486 449.71 61.7299C449.909 62.3447 450.047 62.9779 450.12 63.6199C450.162 65.022 450.044 66.4243 449.77 67.8C449.176 68.8535 448.352 69.76 447.36 70.4523C446.369 71.1447 445.234 71.6053 444.04 71.8L404.47 71.72C403.97 71.63 403.47 71.5099 402.95 71.3799C402.459 71.2472 401.988 71.0487 401.55 70.79C401.057 70.4905 400.586 70.1563 400.14 69.79C399.773 69.435 399.466 69.023 399.23 68.57C399.004 68.099 398.827 67.6065 398.7 67.0999C398.551 66.5304 398.434 65.9528 398.35 65.37C398.36 64.6997 398.42 64.0312 398.53 63.3699C398.638 62.7421 398.816 62.1284 399.06 61.54C399.3 60.96 399.58 60.39 399.88 59.81C400.33 59.3851 400.826 59.0127 401.36 58.7C401.967 58.3381 402.602 58.027 403.26 57.77V57.77Z" fill="#FF7600"/>
<g opacity="0.7">
<path opacity="0.7" d="M125.21 128.2H125.28C129.28 126.86 131.59 125.2 132.12 123.33C132.162 123.223 132.178 123.106 132.166 122.992C132.153 122.877 132.114 122.766 132.05 122.67C131.88 122.4 131.37 122.04 130 121.84C128.65 122.56 126.76 123.64 124.37 125.07H124.25H123.34L123.46 124.72C125.35 119.34 126.61 115.84 127.22 114.3C127.515 112.792 127.467 111.237 127.08 109.75C125.434 109.945 123.813 110.307 122.24 110.83L122 111L121.94 110.75C121.59 109.36 120.2 108.23 117.81 107.41C117.81 107.69 117.81 108.22 117.81 109.22V109.35L117.7 109.43C110.7 114.31 105.85 117.83 103.33 119.88L103.27 120.09C105.983 119.398 108.617 118.426 111.13 117.19H111.22H111.82L111.73 117.53C111.47 118.43 110.2 121.67 107.86 127.41L109.62 129.66L109.29 130.82H109.11C108.19 130.82 102.88 132.4 93.33 135.38C93.1325 135.855 93.1063 136.385 93.2559 136.877C93.4055 137.37 93.7215 137.795 94.15 138.08L95.08 138.03C97.08 136.54 102.56 134.67 111.65 132.32H112.34L112.03 133.39L111.95 133.44C96.85 142.56 93.38 145.51 93.13 146.39L93.04 146.7C96.24 146.35 102.24 143.27 110.9 137.54C113.5 135.68 115.2 134.75 116.1 134.71L116.98 134.66L116.86 135.01C115.73 138.4 114.92 140.95 114.46 142.58L112.9 147L108.08 147.23C108.073 147.389 108.115 147.546 108.2 147.68C108.54 148.26 109.81 149.15 113.86 150.08C114.661 150.023 115.45 149.848 116.2 149.56C117.7 144.66 118.82 141.24 119.63 138.73C120.2 136.99 120.63 135.73 120.85 134.9C121.166 133.52 121.297 132.105 121.24 130.69V130.45H121.49C121.71 130.47 122.52 130.16 125.21 128.2ZM120 125.77C119.49 127.56 116.89 128.85 112.06 129.77H111.42L111.83 128.34C112.47 126.09 115.17 124.72 120.1 124.16H120.47L120 125.77ZM121.07 122.01L115.25 123.17H114.61L114.7 122.84C114.963 121.804 114.944 120.716 114.645 119.689C114.346 118.662 113.778 117.734 113 117L112.91 116.9L113.1 116.21H113.2L121.3 111.68L121.43 111.88C121.608 112.215 121.877 112.492 122.206 112.68C122.536 112.868 122.911 112.958 123.29 112.94H123.64L122.57 116.69L121.31 116.75C117.52 117.05 116.95 117.62 116.89 117.86V117.95H117.34L118.98 118.15L118.84 118.64L118.52 119.26L122.16 118.26L121.07 122.01Z" fill="white"/>
<path opacity="0.7" d="M191.48 129.2H191L190.94 129.49C190.744 130.406 190.613 131.335 190.55 132.27C190.272 132.743 190.041 133.242 189.86 133.76L189.71 134.21L189.78 134.35C190.17 135.12 190.57 135.49 191.04 135.52C191.48 135.52 192.24 135.07 194.82 132.13L195 132L194.95 131.81C194.824 131.01 194.391 130.29 193.743 129.802C193.096 129.315 192.284 129.099 191.48 129.2Z" fill="white"/>
<path opacity="0.7" d="M183.76 111.56H183.22C182.468 111.699 181.794 112.112 181.33 112.72C180.71 112.81 179.48 113.31 176.33 115.72L176.23 115.79L175.99 116.6H176.5C179.696 116.286 182.804 115.37 185.66 113.9L185.8 113.82L185.92 113.43L185.86 113.31C185.718 112.846 185.443 112.433 185.07 112.123C184.697 111.812 184.242 111.616 183.76 111.56V111.56Z" fill="white"/>
<path opacity="0.7" d="M201.93 123.12C199.677 121.415 197.278 119.913 194.76 118.63C194.949 118.139 195.176 117.664 195.44 117.21C195.705 116.92 196.031 116.692 196.394 116.542C196.756 116.392 197.148 116.323 197.54 116.34L199.09 116.26C200.01 116.12 200.41 115.92 200.52 115.57L200.6 115.3C200.624 115.221 200.63 115.137 200.616 115.055C200.602 114.974 200.569 114.896 200.52 114.83C200.33 114.53 199.81 114.22 197.37 113.98H197.05L196.99 114.19C196.91 114.199 196.83 114.199 196.75 114.19H196.14C195.756 114.174 195.384 114.056 195.06 113.85L194.95 113.78H194.81C194.556 113.834 194.299 113.874 194.04 113.9H193.76L193.42 115.05C193.12 115.24 191.93 115.85 187.75 117.71C187.777 117.63 187.784 117.545 187.772 117.461C187.76 117.378 187.728 117.299 187.68 117.23C187.48 116.93 186.92 116.59 184.31 116.33H183.99L183.93 116.55C183.837 116.561 183.743 116.561 183.65 116.55H183C182.583 116.542 182.176 116.413 181.83 116.18L181.71 116.12H181.58C181.303 116.18 181.023 116.22 180.74 116.24H180.46L180.1 117.46C179.77 117.68 178.36 118.4 173.05 120.75C171.49 121.15 171.3 121.31 171.22 121.57L171.13 121.88L171.27 122.03C171.486 122.289 171.751 122.502 172.049 122.658C172.348 122.814 172.674 122.91 173.01 122.94H173.25C174.002 122.859 174.741 122.684 175.45 122.42C176.92 121.72 177.84 121.29 178.45 121.03C176.496 123.405 174.392 125.653 172.15 127.76L172.08 127.83L171.88 128.51L172.8 128.46C175.32 127.72 175.93 127.26 176.1 126.88C176.92 125.94 177.51 125.33 177.93 124.88L177.7 125.67C177.58 126.08 177.42 126.67 177.23 127.56L176.23 127.73L176.07 128.27C175.75 129.36 176.59 130.27 178.56 130.83H178.66L179.49 130.62V130.35C179.715 128.086 180.126 125.845 180.72 123.65C181.25 124.07 182.05 124.77 183.12 125.74C183.134 125.833 183.168 125.922 183.22 126C183.4 126.26 183.82 126.55 185.22 126.81H184.59V127.19C184.683 129.704 184.321 132.214 183.52 134.6C182.932 136.148 182.24 137.654 181.45 139.11C181.2 139.84 180.28 140.24 178.72 140.32L177.16 140.39L177.49 139.39C178.221 137.651 179.101 135.978 180.12 134.39C180.146 134.315 180.153 134.236 180.143 134.158C180.133 134.08 180.104 134.005 180.06 133.94H180.01C179.999 133.815 179.958 133.695 179.89 133.59C179.59 133.13 178.74 132.54 174.68 132.14H174.37L174.15 132.77L174.29 132.93C175.16 133.93 175.19 135.74 174.37 138.16L173.48 140.77C171.81 140.97 169.17 141.44 165.48 142.19H165.26L165.09 142.69L165.15 142.82C165.41 143.39 166.22 143.88 167.69 144.36H167.77L190.54 141.21C193.157 141.265 195.765 141.53 198.34 142H198.42H198.51C199.23 141.78 199.57 141.56 199.67 141.26L199.96 140.41L199.76 140.25C197.877 138.87 195.556 138.223 193.23 138.43C190.01 138.85 187.49 139.12 185.72 139.23L185.91 138.69C186.252 137.832 186.449 136.923 186.49 136C187.806 133.939 188.857 131.722 189.62 129.4L189.89 128.61L189.56 128.49C188.303 128.033 187.08 127.488 185.9 126.86C186.63 126.97 187.54 127.08 188.73 127.18H189.04L189.37 126.06L189.18 125.91C188.71 125.54 188.18 125.17 187.68 124.79C189.05 124.32 189.54 123.98 189.68 123.66C190.4 122.83 190.93 122.28 191.32 121.91L191.13 122.55C191.01 122.96 190.85 123.55 190.69 124.3L189.78 124.46L189.63 124.97C189.32 125.97 190.11 126.82 191.96 127.39H192.06L192.86 127.19V126.92C193.061 124.825 193.439 122.751 193.99 120.72C194.48 121.11 195.22 121.72 196.19 122.64C196.204 122.73 196.238 122.815 196.29 122.89C196.55 123.27 197.36 123.7 201.43 124.04H201.74L202.06 122.96L201.93 123.12ZM181.49 121.33C181.697 120.795 181.944 120.277 182.23 119.78C182.516 119.46 182.868 119.205 183.261 119.032C183.655 118.86 184.081 118.774 184.51 118.78H185.23C185.191 118.827 185.16 118.881 185.14 118.94L185.05 119.24L185.2 119.4C185.618 119.883 186.205 120.187 186.84 120.25H187.06C187.764 120.169 188.455 120.005 189.12 119.76L191.79 118.5C190.134 120.512 188.358 122.423 186.47 124.22C185 123.27 183.35 122.31 181.49 121.33Z" fill="white"/>
<path opacity="0.7" d="M196.84 109.51H196.34C195.636 109.636 195.004 110.021 194.57 110.59C193.98 110.68 192.82 111.16 189.93 113.4L189.83 113.48L189.59 114.27H190.11C191.154 114.169 192.19 113.995 193.21 113.75C195.099 113.31 196.926 112.638 198.65 111.75L198.79 111.67L198.91 111.29L198.85 111.16C198.715 110.717 198.452 110.325 198.094 110.031C197.737 109.738 197.3 109.556 196.84 109.51V109.51Z" fill="white"/>
<path opacity="0.7" d="M175.3 112.34L175.11 111.82C179.062 111.522 182.984 110.913 186.84 110C194.95 108.46 199.1 107.4 199.26 106.8C199.42 106.2 199.16 105.75 198.26 105.8L198.32 105.56L199.32 105.51L199.48 104.97L196.48 105.12L195.71 105.42L195.78 105.15C184.447 107.27 178.043 108.62 176.57 109.2C176.65 108.91 176.47 108.74 176.02 108.7L174.39 108.78C174.207 108.781 174.028 108.835 173.875 108.936C173.722 109.037 173.602 109.181 173.53 109.35C172.337 109.457 171.136 109.427 169.95 109.26C170.95 110.77 171.62 111.51 171.95 111.5C169.764 114.373 167.968 117.524 166.61 120.87C162.063 130.53 157.73 137.26 153.61 141.06C153.35 141.94 151.89 142.44 149.22 142.57L149.16 142.84L150.48 142.77L149.97 143.31V144.61L151.97 144.51C154.05 144.41 156.81 142.456 160.25 138.65C166.21 130.99 169.407 126.41 169.84 124.91C172.687 117.776 174.507 113.586 175.3 112.34Z" fill="white"/>
<path opacity="0.7" d="M257.5 140.2C257.796 139.97 258.053 139.693 258.26 139.38C258.96 136.67 257.26 134.43 253 132.56L251.95 132.61L251.79 133.21V134.66H251.56C251.41 134.66 251.4 134.72 251.39 134.76C251.01 136.16 252.68 138.04 256.39 140.33H256.46L256.59 139.82H256.77C256.897 139.801 257.026 139.812 257.147 139.852C257.269 139.892 257.379 139.96 257.47 140.05C257.489 140.098 257.499 140.149 257.5 140.2Z" fill="white"/>
<path opacity="0.7" d="M266.27 128.07H266.41L266.84 126.47C266.252 125.962 265.573 125.569 264.84 125.31L260.68 125.51C258.68 125.61 255.78 125.92 252.13 126.43L251.65 126.49L252.55 124.75L252.88 123.5C253.158 122.522 253.323 121.516 253.37 120.5V120.5L255.61 114.5C255.471 114.061 255.471 113.589 255.61 113.15L257.19 107.33L257.74 106.71H257.87C260.62 107.04 262.36 107.21 263.03 107.21C263.306 106.848 263.681 106.574 264.11 106.42C264.39 105.27 264.25 104.77 264.11 104.56C264.027 104.474 263.925 104.41 263.811 104.373C263.698 104.336 263.577 104.328 263.46 104.35H263.1C261.652 104.378 260.217 104.621 258.84 105.07L258.61 105.16L258.31 104.34L259.02 101.66C259.124 101.143 259.122 100.611 259.014 100.095C258.906 99.5794 258.693 99.0911 258.39 98.66C258.137 98.4263 257.835 98.2514 257.507 98.1477C257.179 98.044 256.831 98.014 256.49 98.06L254.89 98.14L252.72 98.49L252.57 99.05C254.26 99.18 254.67 99.19 254.77 99.19H255.08L255.02 99.5C254.68 101.5 254.39 103.01 254.14 103.93L253.68 105.65L250.24 106.07H249.24L249.3 105.76C249.49 104.66 248.95 103.33 247.69 101.82C247.67 101.814 247.65 101.814 247.63 101.82V102H247.44C247.118 101.996 246.799 101.931 246.5 101.81C246.14 101.81 245.73 101.91 245.66 102.17C245.558 102.444 245.558 102.746 245.66 103.02L245.73 103.17L245.25 103.72L245.5 104.41H245.07C245.075 104.872 245.041 105.334 244.97 105.79L244.91 106.03C244.59 107.23 242.43 107.89 238.12 108.1L236.42 108.18L236.01 108.01C235.977 108.054 235.937 108.091 235.89 108.12L236.39 108.94H235.39C235.833 109.272 236.34 109.507 236.88 109.63L237.99 109.18L237.88 109.6L238.78 109.55L239.93 109.09L239.83 109.46L241.83 109.15L243.83 109.05L243.3 111L242.61 112.62L242.68 112.68C242.724 112.738 242.752 112.806 242.763 112.877C242.773 112.949 242.765 113.022 242.74 113.09L241 117.57C241.035 117.591 241.065 117.618 241.09 117.65C241.134 117.706 241.163 117.771 241.175 117.841C241.187 117.911 241.182 117.983 241.16 118.05C241.03 118.52 240.16 120.74 238.39 124.82L238.68 125.53H238.33C238.18 125.53 238.17 125.59 238.16 125.63L238.03 126.1C238.237 126.084 238.445 126.112 238.639 126.182C238.834 126.253 239.012 126.365 239.16 126.51C239.284 126.662 239.348 126.854 239.34 127.05H239.39C241.22 126.96 242.39 125.79 243.03 123.47C243.17 122.95 243.87 122.29 248.11 121.76H248.48L248.25 122.62L248.16 124.2V124.27C247.965 124.462 247.802 124.685 247.68 124.93V126.43H247.44H247.31L247.55 127.08L247.3 127.16C243.48 128.38 235.62 129.97 223.94 131.89L223.56 131.95L223.66 131.58C223.85 130.86 223.57 130.33 222.78 129.91H222.52C222.13 129.91 221.73 130.43 221.37 131.36L221.24 131.84C221.158 132.058 221.132 132.294 221.165 132.524C221.198 132.755 221.289 132.974 221.43 133.16C222.04 133.92 223.71 134.24 226.38 134.11C227.247 133.887 228.135 133.756 229.03 133.72L230.6 133.64C233.504 132.796 236.456 132.128 239.44 131.64L240.44 131.59L239.57 132.59C237.84 134.906 235.722 136.906 233.31 138.5L233.55 139.14H233.21C233.06 139.14 233.05 139.2 233.04 139.23L232.99 139.41L235.25 139.3C237.11 139.21 239.59 137.74 242.61 134.94C243.01 133.42 242.81 132.33 242.04 131.7L241.92 131.6L242.07 131.02H242.58C243.588 130.948 244.59 130.811 245.58 130.61C245.81 130.61 246.03 130.7 246.65 131.9L246.74 131.57L247.92 131.52L247.58 132.8C247.898 132.753 248.207 132.662 248.5 132.53L248.6 132.48L248.71 132.53C249.066 132.68 249.455 132.739 249.84 132.7C250.35 132.7 250.84 131.92 251.19 130.51C251.5 129.34 253.41 128.69 257.04 128.51H257.38L257.31 128.78L260.83 128.6L262.9 128.19L262.82 128.49C264.61 128.23 265.79 128.09 266.27 128.07ZM249.41 119.35H249.24C246.02 119.74 245.43 119.95 245.32 120.03L244.76 120.42L244.92 119.82H244.53L245.53 117.61C245.62 117.24 246.23 116.76 249.89 116.24H250.26L249.41 119.35ZM251.26 113.61L248.76 114.01L246.41 114.13L246.54 113.78C247.4 111.36 247.93 109.78 248.11 109.09C248.18 108.85 248.27 108.49 252.42 107.93L252.79 107.88L251.26 113.61Z" fill="white"/>
<path opacity="0.7" d="M283 113.77C284.28 114.64 284.61 114.69 284.68 114.69L287.82 113.92C306.75 108.48 318.97 105.59 324.11 105.35C324.862 105.483 325.627 105.53 326.39 105.49L327.3 105.05C327.37 104.59 327.3 104.44 327.25 104.39C327.2 104.34 327.19 104.31 327.01 104.32H326.66L326.92 103.63L327.14 103.4C326.598 103.125 325.998 102.981 325.39 102.98C321.872 103.188 318.375 103.666 314.93 104.41L313.78 104.47L314.44 103.98C315.292 103.419 315.954 102.614 316.34 101.67C316.386 101.589 316.409 101.498 316.409 101.405C316.409 101.312 316.386 101.221 316.34 101.14C316.18 100.9 315.7 100.59 314.34 100.48C314.278 100.558 314.199 100.62 314.108 100.661C314.018 100.703 313.919 100.723 313.82 100.72H313.61V100.51C313.424 99.6777 313.307 98.8314 313.26 97.9799C311.717 96.6304 309.932 95.5854 308 94.8999L306.58 94.9699C306.021 95.1872 305.541 95.5669 305.2 96.0599L305.12 97.0599C308.79 99.0599 308.75 99.3699 308.71 99.6099L308.55 100.09H308.38C306.511 100.533 304.668 101.081 302.86 101.73C298.86 102.2 296.61 103.13 296.15 104.5C296.144 104.533 296.144 104.567 296.15 104.6C296.15 104.6 296.15 104.6 296.25 104.6H296.31L297.26 104.23V104.54C297.32 104.99 297.44 105.28 297.59 105.25H297.87C299.128 105.154 300.374 104.936 301.59 104.6L301.81 104.54L302.05 105.31L301.86 105.85L301.28 106.85C301.28 106.85 301.28 106.85 301.33 106.91C301.366 106.968 301.386 107.036 301.386 107.105C301.386 107.174 301.366 107.241 301.33 107.3L301.21 107.65H301.07C294 109.42 292.46 109.87 291.76 110.18L288.15 111.34C286.488 111.718 284.855 112.209 283.26 112.81L283 113.77ZM304.91 105.77C305.209 105.106 305.543 104.459 305.91 103.83C306.09 103.27 307.05 102.3 312.98 100.76L313.42 100.65L313.16 101.42H313.09C310.624 103.181 308.007 104.721 305.27 106.02L304.78 106.22L304.91 105.77Z" fill="white"/>
<path opacity="0.7" d="M338.05 128.64C339.57 119.95 339.18 117.31 338.57 116.64C338.519 116.576 338.453 116.524 338.379 116.489C338.304 116.455 338.222 116.438 338.14 116.44H337.73C337.28 117.79 336.8 119.44 336.3 121.44C335.42 123.51 334.4 125.62 333.3 127.75C333.22 128 333.08 128.43 321.68 130.32H321.59C320.809 130.234 320.049 130.018 319.34 129.68L319.17 129.58L319.24 129.38C320.144 126.869 321.175 124.406 322.33 122C322.192 120.613 322.192 119.217 322.33 117.83V117.83L322.63 116.96H322.72C326.92 114.96 329.61 113.34 330.72 112.22C330.822 111.976 330.866 111.712 330.849 111.448C330.831 111.185 330.753 110.928 330.62 110.7C330.15 110 328.93 109.6 327.02 109.5H326.96C324.1 109.64 320.58 110.74 316.49 112.77H316.39H315.75L315.87 112.43C315.882 112.409 315.889 112.385 315.889 112.36C315.889 112.335 315.882 112.311 315.87 112.29C315.87 112.21 315.69 112.05 315.17 111.89L314 112C313.65 112 313.25 112.46 312.86 113.27C313.32 117.7 314.36 119.99 315.94 120.07H316L318.61 118.9L317.98 119.69C316.57 121.46 311.83 124.91 303.5 130.25L303.38 130.63C303.38 130.71 303.61 130.94 304.38 131.18H304.94C309.415 129.561 313.517 127.054 317 123.81L317.08 123.75H317.83L317.63 124.33C316.946 126.005 316.112 127.614 315.14 129.14C315.073 129.534 315.096 129.937 315.209 130.32C315.322 130.703 315.52 131.056 315.79 131.35C316.9 132.55 319.42 133.06 323.28 132.87C326.83 132.24 329.28 131.73 330.5 131.36L330.95 131.22L330.84 131.56C335.21 131.12 336.84 130.34 337.4 129.66H337.18L337.29 129.32C337.344 129.149 337.443 128.995 337.577 128.876C337.711 128.756 337.874 128.675 338.05 128.64ZM317.91 117H317.67L317.16 114.62L317.32 114.14H317.49C317.561 114.132 317.632 114.14 317.699 114.162C317.767 114.185 317.828 114.221 317.88 114.27C320.382 113.182 323.049 112.526 325.77 112.33H326.94L326.22 112.82C323.712 114.683 320.901 116.097 317.91 117V117Z" fill="white"/>
<path opacity="0.7" d="M297.34 113.61C298.61 114.48 298.94 114.61 299.03 114.54L306.29 113.03C325.23 107.59 337.45 104.7 342.59 104.45C343.338 104.591 344.1 104.641 344.86 104.6L345.78 104.16C345.85 103.7 345.78 103.54 345.78 103.5C345.78 103.46 345.72 103.41 345.54 103.43H345.18L345.45 102.73L345.67 102.51C345.13 102.23 344.529 102.086 343.92 102.09C340.402 102.294 336.904 102.772 333.46 103.52H332.31L332.96 103.04C333.814 102.479 334.48 101.674 334.87 100.73C334.913 100.648 334.935 100.557 334.935 100.465C334.935 100.373 334.913 100.282 334.87 100.2C334.71 99.9599 334.23 99.6499 332.87 99.5299C332.809 99.6088 332.73 99.6724 332.639 99.7158C332.549 99.7592 332.45 99.7811 332.35 99.7799H332V99.5699C331.814 98.7377 331.697 97.8915 331.65 97.0399C330.133 95.6912 328.376 94.6396 326.47 93.9399L325.06 94.0099C324.81 94.0099 324.37 94.2999 323.68 95.0999L323.59 96.0999C327.27 98.0999 327.22 98.4099 327.19 98.6499L327.04 99.1299H326.86C324.989 99.5663 323.146 100.114 321.34 100.77C317.34 101.24 315.09 102.17 314.63 103.53C314.625 103.566 314.625 103.603 314.63 103.64C314.63 103.64 314.63 103.64 314.73 103.64H314.79L315.73 103.27L315.78 103.58C315.84 104.03 315.96 104.32 316.11 104.29H316.39C317.645 104.194 318.888 103.977 320.1 103.64L320.33 103.58L320.57 104.35L320.38 104.89L319.8 105.89C319.8 105.89 319.8 105.89 319.85 105.89C319.883 105.951 319.901 106.02 319.901 106.09C319.901 106.16 319.883 106.229 319.85 106.29L319.73 106.64H319.59C312.52 108.41 307.79 109.82 305.52 110.83H305.46C299.2 111.83 297.9 112.34 297.64 112.52L297.34 113.61ZM323.34 104.85C323.34 104.75 323.52 104.43 324.34 102.91C324.53 102.35 325.48 101.38 331.42 99.8399L331.86 99.7299L331.6 100.5H331.52C329.06 102.265 326.446 103.805 323.71 105.1L323.22 105.3L323.34 104.85Z" fill="white"/>
<path opacity="0.7" d="M351.61 128C351.517 128.234 351.492 128.488 351.536 128.736C351.58 128.983 351.692 129.213 351.86 129.4C352.076 129.584 352.328 129.721 352.6 129.8C352.873 129.879 353.159 129.9 353.44 129.86C354.155 129.838 354.849 129.613 355.44 129.21C355.973 128.854 356.36 128.318 356.53 127.7C356.622 127.468 356.645 127.213 356.595 126.968C356.545 126.723 356.425 126.498 356.25 126.32C355.922 126.006 355.484 125.834 355.03 125.84C354.91 125.83 354.79 125.83 354.67 125.84C353.973 125.857 353.297 126.083 352.73 126.49C352.193 126.848 351.797 127.382 351.61 128V128Z" fill="white"/>
<path opacity="0.7" d="M365.76 94.68C364.81 93.23 362.93 92.51 360.17 92.54C358.906 100.305 357.01 107.954 354.5 115.41C354.41 116.86 354.37 117.62 354.37 117.69C354.3 119.55 354.26 120.84 354.26 121.54C354.303 121.952 354.432 122.351 354.64 122.71C354.79 123 354.96 123.02 355.08 123.01C355.361 122.962 355.618 122.821 355.81 122.61C356.137 122.288 356.428 121.933 356.68 121.55C357.977 119.584 359.127 117.525 360.12 115.39L360.33 115.04L365.76 94.68Z" fill="white"/>
<path opacity="0.7" d="M146.9 125.7C146.772 126.136 146.545 126.538 146.239 126.874C145.932 127.21 145.553 127.472 145.13 127.64C144.766 127.875 144.348 128.013 143.916 128.041C143.484 128.069 143.051 127.986 142.66 127.8C142.325 127.605 142.071 127.295 141.946 126.927C141.821 126.56 141.833 126.159 141.98 125.8C142.077 125.367 142.271 124.961 142.548 124.615C142.826 124.268 143.179 123.989 143.58 123.8C143.951 123.586 144.372 123.473 144.8 123.473C145.228 123.473 145.649 123.586 146.02 123.8C146.371 123.958 146.653 124.237 146.814 124.586C146.976 124.935 147.006 125.33 146.9 125.7Z" fill="white"/>
<path opacity="0.7" d="M217.21 122.51C216.733 122.632 216.234 122.645 215.751 122.548C215.268 122.451 214.813 122.247 214.42 121.95C213.993 121.743 213.626 121.429 213.356 121.038C213.086 120.647 212.922 120.193 212.88 119.72C212.88 118.88 213.35 118.3 214.34 117.98C214.802 117.817 215.295 117.764 215.781 117.825C216.267 117.886 216.732 118.059 217.14 118.33C217.547 118.56 217.886 118.895 218.121 119.299C218.357 119.703 218.481 120.162 218.48 120.63C218.528 121.044 218.427 121.461 218.194 121.806C217.961 122.15 217.612 122.4 217.21 122.51V122.51Z" fill="white"/>
<path opacity="0.7" d="M274.68 118.51C274.37 118.747 274.01 118.911 273.627 118.989C273.244 119.067 272.848 119.057 272.47 118.96C272.097 118.942 271.735 118.827 271.42 118.627C271.104 118.427 270.846 118.149 270.67 117.82C270.539 117.518 270.519 117.179 270.615 116.865C270.71 116.55 270.914 116.279 271.19 116.1C271.476 115.838 271.82 115.647 272.193 115.541C272.566 115.435 272.959 115.418 273.34 115.49C273.707 115.533 274.057 115.673 274.354 115.894C274.65 116.115 274.883 116.41 275.03 116.75C275.189 117.037 275.241 117.372 275.177 117.694C275.113 118.016 274.937 118.305 274.68 118.51V118.51Z" fill="white"/>
<path opacity="0.7" d="M309.82 130.08C308.18 130.35 306.02 130.78 303.12 131.26H303C302.219 131.175 301.459 130.958 300.75 130.62L300.58 130.52L300.65 130.33C302.24 126.22 303.25 123.8 303.74 122.94C303.602 121.554 303.602 120.157 303.74 118.77L304.04 117.91H304.14C308.33 115.91 311.03 114.29 312.14 113.17C312.245 112.929 312.291 112.666 312.273 112.403C312.256 112.14 312.176 111.886 312.04 111.66C311.56 110.95 310.32 110.55 308.38 110.45C305.52 110.59 302 111.69 297.91 113.73H297.81H297.17L297.29 113.39C297.302 113.369 297.309 113.345 297.309 113.32C297.309 113.296 297.302 113.271 297.29 113.25C297.29 113.17 297.11 113.01 296.59 112.85L295.44 112.9C295.09 112.9 294.69 113.36 294.3 114.17C294.78 118.72 295.85 121.04 297.51 120.97L300.12 119.8L299.49 120.59C298.08 122.36 293.34 125.82 285.02 131.15L284.89 131.53C284.89 131.61 285.12 131.84 285.89 132.08H286.44C290.921 130.477 295.032 127.987 298.53 124.76L298.6 124.69H299.35L299.15 125.28C298.467 126.952 297.634 128.559 296.66 130.08C296.593 130.474 296.616 130.877 296.729 131.26C296.842 131.643 297.04 131.996 297.31 132.29C298.42 133.49 300.94 134 304.8 133.81L307.56 133.33C310.68 132.81 314.86 129.26 309.82 130.08ZM299.39 117.84H299.15L298.64 115.46L298.8 114.98H299C299.072 114.97 299.145 114.977 299.213 115.001C299.281 115.026 299.342 115.067 299.39 115.12C301.886 114.008 304.555 113.331 307.28 113.12H308.45L307.73 113.61C305.219 115.498 302.396 116.929 299.39 117.84Z" fill="white"/>
</g>
</g>
<defs>
<clipPath id="clip0_1959:163185">
<rect width="461.5" height="150.12" fill="white"/>
</clipPath>
</defs>
</svg>
