<svg width="462" height="148" viewBox="0 0 462 148" fill="none" xmlns="http://www.w3.org/2000/svg">
<g clip-path="url(#clip0_1959:163162)">
<g opacity="0.7">
<path opacity="0.7" d="M129.91 118.94C128.623 119.64 126.83 120.697 124.53 122.11H124.02C125.8 117.003 126.977 113.717 127.55 112.25C127.881 110.722 127.816 109.135 127.36 107.64C125.73 107.836 124.127 108.212 122.58 108.76C122.21 107.31 120.78 106.2 118.27 105.44C118.189 106.103 118.166 106.773 118.2 107.44C111.533 112.2 106.993 115.573 104.58 117.56L104.41 118.16C105.58 118.09 108.18 117.16 112.23 115.25H112.47C112.23 116.09 111 119.243 108.78 124.71L110.46 126.81L110.23 127.63C109.33 127.69 104.31 129.223 95.1701 132.23C94.7801 133.61 95.0801 134.59 96.0801 135.18L97.0801 135.11C98.9201 133.703 104.117 131.82 112.67 129.46H112.94L112.77 130.07C101.257 137.237 95.3334 141.453 95.0001 142.72L94.8301 143.35C97.7967 143.15 103.553 140.15 112.1 134.35C114.5 132.6 116.1 131.69 116.88 131.64H117.37C116.29 134.86 115.54 137.25 115.1 138.81L113.64 143.93L109.07 144.23C108.743 145.397 110.62 146.397 114.7 147.23C115.529 147.165 116.342 146.97 117.11 146.65C119.57 138.603 121.07 133.627 121.61 131.72C121.913 130.409 122.04 129.064 121.99 127.72C122.43 127.72 123.65 126.94 125.63 125.47C129.497 124.137 131.697 122.52 132.23 120.62C132.44 119.7 131.69 119.14 129.91 118.94ZM120.29 123C119.843 124.58 117.41 125.807 112.99 126.68H112.75L113.04 125.68C113.607 123.68 116.14 122.38 120.64 121.78L120.29 123ZM122.78 114.2L121.78 114.27C119.03 114.54 117.57 114.96 117.41 115.55L117.29 115.96H118.04L119.27 116.1V116.29L118.74 117.29L122.28 116.29L121.41 119.36L116 120.47H115.76C116.034 119.462 116.027 118.397 115.74 117.393C115.452 116.388 114.896 115.481 114.13 114.77L114.26 114.34L121.7 110.05C121.884 110.412 122.174 110.709 122.532 110.902C122.889 111.095 123.296 111.174 123.7 111.13L122.78 114.2Z" fill="white"/>
<path opacity="0.7" d="M176 110.17L175.8 109.68C179.55 109.305 183.265 108.636 186.91 107.68C194.597 106.073 198.507 104.983 198.64 104.41C198.82 103.72 198.48 103.41 197.64 103.41V103.17L198.58 103.11L198.7 102.59L195.85 102.78L195.13 103.08V102.82C184.377 105.093 178.333 106.517 177 107.09C177.06 106.81 176.88 106.65 176.44 106.62L174.88 106.72C174.708 106.727 174.542 106.784 174.402 106.883C174.262 106.982 174.154 107.12 174.09 107.28C172.954 107.416 171.806 107.416 170.67 107.28C171.67 108.71 172.38 109.41 172.67 109.39C170.722 112.192 169.164 115.247 168.04 118.47C164.167 127.803 160.343 134.333 156.57 138.06C156.36 138.91 154.99 139.42 152.44 139.58L152.39 139.84L153.66 139.76L153.2 140.28V141.52L155.08 141.4C157.08 141.273 159.62 139.353 162.7 135.64C168.033 128.187 170.863 123.737 171.19 122.29C173.67 115.43 175.273 111.39 176 110.17Z" fill="white"/>
<path opacity="0.7" d="M195.42 117.1C193.588 117.297 191.768 117.597 189.97 118H189.63C190.298 116.234 190.853 114.427 191.29 112.59L191.43 111.78L191.1 110H190.45L188.45 109.86C187.898 110.198 187.288 110.429 186.65 110.54C186.51 111.39 186.53 111.91 186.71 112.11C185.903 114.963 184.636 117.665 182.96 120.11C176.893 122.623 173.377 123.913 172.41 123.98C172.41 124.16 172.81 124.75 173.72 125.75C175.928 125.612 178.111 125.206 180.22 124.54H180.56C174.92 133.76 170.427 138.483 167.08 138.71V138.98C167.51 138.98 167.88 139.37 168.18 140.23C169.806 140.047 171.367 139.489 172.74 138.6C180.24 132.727 184.733 127.917 186.22 124.17C186.513 122.53 189.513 121.197 195.22 120.17C195.22 120.33 195.31 120.41 195.53 120.39L195.1 120.96L194.91 122.03V123.64C192.57 128.033 190.03 132.367 187.29 136.64C187.06 136.64 186.96 136.57 186.99 136.39L186.27 136.7H185.94L186.06 135.9H185.75L185.05 136.2C185.12 135.859 185.067 135.505 184.9 135.2C184.945 135.204 184.99 135.199 185.033 135.186C185.075 135.172 185.115 135.151 185.15 135.122C185.184 135.093 185.212 135.058 185.233 135.018C185.254 134.978 185.266 134.935 185.27 134.89C183.937 134.983 183.107 133.533 182.78 130.54L182.07 130.86C182.07 131.04 182.12 131.12 182.34 131.11L181.13 132.51C181.13 133.41 181.3 133.85 181.52 133.84C181.667 138.407 183.47 140.573 186.93 140.34C189.197 140.193 191.423 138.193 193.61 134.34C197.85 127.92 200.183 123.433 200.61 120.88C200.45 118.1 198.71 116.88 195.42 117.1Z" fill="white"/>
<path opacity="0.7" d="M251.22 129.8L249.96 129.89L249.74 130.64V131.9C249.652 131.892 249.565 131.917 249.493 131.968C249.422 132.019 249.371 132.094 249.35 132.18C248.917 133.686 250.56 135.576 254.28 137.85H254.6L254.74 137.35C255.17 137.35 255.34 137.48 255.25 137.81C255.57 137.81 255.98 137.43 256.47 136.75C257.243 133.923 255.493 131.606 251.22 129.8Z" fill="white"/>
<path opacity="0.7" d="M263 122.5L258.85 122.77C256.85 122.903 254.043 123.236 250.43 123.77L251.12 122.48L251.48 121.2C251.774 120.223 251.959 119.217 252.03 118.2L254.34 112.28C254.184 111.878 254.184 111.432 254.34 111.03L256 105.4L256.46 104.88C258.185 105.111 259.921 105.244 261.66 105.28C261.933 104.879 262.341 104.592 262.81 104.47C263.3 102.75 263.02 101.93 261.98 102H261.63C260.179 102.052 258.744 102.318 257.37 102.79L257.19 102.29L257.92 99.7397C258.22 97.0497 257.34 95.7397 255.26 95.9097L253.67 96.0197L251.37 96.4197L251.08 97.4197C252.55 97.4997 253.38 97.5397 253.56 97.5297C253.19 99.5297 252.88 100.96 252.62 101.85L252.19 103.39L248.97 103.83H248.33C248.557 102.65 248.007 101.273 246.68 99.6997C246.46 99.6997 246.33 99.7997 246.28 99.9597C245.982 99.9621 245.686 99.9043 245.41 99.7897C244.77 99.7897 244.41 100.02 244.3 100.35C244.181 100.672 244.181 101.027 244.3 101.35L243.83 101.89L244 102.39H243.68C243.669 102.895 243.633 103.399 243.57 103.9L243.5 104.14C243.207 105.18 241.05 105.846 237.03 106.14L235.42 106.25L234.88 106.03C234.855 106.115 234.802 106.189 234.729 106.24C234.657 106.291 234.569 106.316 234.48 106.31L234.91 107.03L233.97 107.09C233.97 107.48 234.58 107.86 235.81 108.22L236.53 107.92C236.48 108.09 236.53 108.17 236.78 108.15L237.72 108.09L238.44 107.79L238.37 108.05L240.67 107.64L242.23 107.54L241.8 109.07L240.99 110.89C241.19 110.89 241.26 110.95 241.22 111.13L239.3 115.75C239.51 115.75 239.59 115.81 239.55 115.99C239.423 116.43 238.47 118.67 236.69 122.71L236.87 123.18C236.782 123.177 236.696 123.203 236.624 123.254C236.552 123.304 236.498 123.376 236.47 123.46L236.25 124.24C237.31 124.17 237.75 124.47 237.55 125.15H237.9C239.8 125.016 241.09 123.763 241.77 121.39C241.94 120.78 243.54 120.25 246.56 119.83L246.42 120.32L246.31 121.84C246.082 122.059 245.899 122.321 245.77 122.61V123.89C245.55 123.89 245.42 123.99 245.38 124.15L245.55 124.64C241.777 125.9 234.127 127.566 222.6 129.64C222.72 129.251 222.682 128.831 222.495 128.47C222.308 128.109 221.987 127.836 221.6 127.71H221.27C220.77 127.71 220.27 128.28 219.9 129.31L219.75 129.81C219.22 131.69 220.97 132.51 225 132.24C225.854 132.012 226.728 131.868 227.61 131.81L229.19 131.71C232.043 130.845 234.945 130.15 237.88 129.63H238.21L237.74 130.15C235.979 132.499 233.828 134.528 231.38 136.15L231.56 136.65C231.471 136.642 231.382 136.666 231.309 136.717C231.236 136.768 231.183 136.843 231.16 136.93L231.02 137.42L233.58 137.26C235.48 137.133 237.98 135.63 241.08 132.75C241.553 131.11 241.363 129.95 240.51 129.27L240.58 129.03H240.9C241.909 128.948 242.912 128.798 243.9 128.58C244.06 128.58 244.41 129.14 244.9 130.27L245.13 129.49H245.77L245.41 130.77C245.875 130.742 246.331 130.623 246.75 130.42C247.136 130.58 247.555 130.642 247.97 130.6C248.59 130.6 249.12 129.77 249.56 128.25C249.85 127.25 251.69 126.6 255.1 126.37C255.1 126.55 255.1 126.63 255.35 126.61L258.82 126.38L260.51 126.02C260.46 126.19 260.51 126.27 260.73 126.26C262.66 125.96 263.86 125.8 264.33 125.77H264.65L265.16 123.98C265.16 123.63 264.46 123.17 263 122.5ZM247.68 117C246.322 117.106 244.981 117.364 243.68 117.77C243.68 117.6 243.68 117.52 243.44 117.54L244.27 115.72C244.39 115.29 245.76 114.87 248.37 114.45L247.68 117ZM249.6 111.37L247.29 111.77L245.38 111.9C246.273 109.506 246.817 107.963 247.01 107.27C247.09 106.98 248.44 106.64 251.01 106.27L249.6 111.37Z" fill="white"/>
<path opacity="0.7" d="M338.73 101.47L338.81 101.19L339.27 100.67C338.552 100.279 337.747 100.076 336.93 100.08C333.2 100.365 329.499 100.944 325.86 101.81H325.54C326.464 101.159 327.163 100.236 327.54 99.1698C327.81 98.1698 326.92 97.6998 324.88 97.5898C324.855 97.675 324.802 97.7492 324.729 97.8001C324.657 97.851 324.569 97.8756 324.48 97.8698C324.22 96.9831 324.056 96.0713 323.99 95.1498C323.05 94.1164 321.083 92.9864 318.09 91.7598L316.5 91.8698C315.828 92.1417 315.258 92.6173 314.87 93.2298V94.4998C317.537 95.8798 318.87 96.7031 318.87 96.9698L318.79 97.2598C316.812 97.775 314.862 98.3959 312.95 99.1198C308.64 99.7098 306.25 100.79 305.8 102.37C305.71 102.71 305.87 102.86 306.28 102.83L307 102.53C307.13 103.2 307.35 103.53 307.67 103.53H307.97C309.326 103.41 310.666 103.152 311.97 102.76L312.15 103.26L312.01 103.76L311.32 105.07C311.53 105.07 311.62 105.14 311.57 105.31L311.5 105.55C304.04 107.55 299.123 109.133 296.75 110.3C291.51 111.26 288.71 111.946 288.35 112.36L287.99 113.63C288.628 114.147 289.367 114.525 290.16 114.74L297.7 113C317.613 106.826 330.28 103.56 335.7 103.2C336.519 103.334 337.352 103.371 338.18 103.31L339.29 102.73C339.47 101.83 339.26 101.43 338.73 101.47ZM323.59 98.7098C321.085 100.622 318.407 102.296 315.59 103.71C315.59 103.57 315.93 102.89 316.49 101.71C316.743 100.816 319.137 99.7331 323.67 98.4598L323.59 98.7098Z" fill="white"/>
<path opacity="0.7" d="M331.64 115.46H331.02C330.6 116.96 330.167 118.827 329.72 121.06C328.907 123.253 327.957 125.493 326.87 127.78C326.757 128.18 322.757 129.117 314.87 130.59C314.063 130.513 313.273 130.307 312.53 129.98C313.345 127.261 314.313 124.59 315.43 121.98C315.176 120.501 315.079 118.999 315.14 117.5L315.36 116.72C319.807 114.427 322.597 112.66 323.73 111.42C324.31 109.42 322.84 108.3 319.34 108.19C316.253 108.39 312.567 109.63 308.28 111.91H307.99C308.1 111.52 307.76 111.22 306.99 111L305.72 111.08C305.22 111.08 304.72 111.65 304.32 112.68C305.12 117.8 306.497 120.297 308.45 120.17L310.25 119.31C308.877 121.177 303.943 125.013 295.45 130.82L295.31 131.32C295.31 131.66 295.71 131.96 296.58 132.23H297.25C301.96 130.437 306.242 127.678 309.82 124.13H310.14L310.07 124.38C309.434 126.173 308.634 127.904 307.68 129.55C307.46 132.737 310.507 134.123 316.82 133.71C320.62 132.97 323.17 132.38 324.47 131.96L324.39 132.22C329.13 131.687 331.687 130.767 332.06 129.46H331.74C331.82 129.18 332.08 128.99 332.51 128.91C333.617 119.83 333.327 115.347 331.64 115.46ZM310.13 116.39L309.55 114.18L309.62 113.93C309.82 113.93 309.89 113.99 309.84 114.17C312.502 112.895 315.371 112.109 318.31 111.85H318.63C316.093 113.863 313.214 115.401 310.13 116.39V116.39Z" fill="white"/>
<path opacity="0.7" d="M361.37 93.74C360.07 100.968 358.184 108.078 355.73 115C355.63 116.36 355.57 117.07 355.58 117.13C355.48 118.84 355.42 120.03 355.41 120.68C355.44 121.074 355.556 121.456 355.75 121.8C355.786 121.906 355.857 121.997 355.952 122.057C356.046 122.117 356.159 122.143 356.27 122.13C356.559 122.083 356.824 121.938 357.02 121.72C357.331 121.414 357.613 121.079 357.86 120.72C359.09 118.883 360.189 116.961 361.15 114.97L361.35 114.64L366.72 95.71C365.84 94.31 364.057 93.6533 361.37 93.74Z" fill="white"/>
<path opacity="0.7" d="M355.81 124.51C355.133 124.546 354.481 124.775 353.93 125.17C353.417 125.524 353.04 126.043 352.86 126.64C352.764 126.871 352.734 127.125 352.775 127.373C352.815 127.62 352.925 127.851 353.09 128.04C353.3 128.22 353.546 128.351 353.812 128.426C354.078 128.5 354.358 128.515 354.63 128.47C355.316 128.431 355.977 128.202 356.54 127.81C357.058 127.46 357.436 126.94 357.61 126.34C357.706 126.109 357.732 125.854 357.683 125.609C357.635 125.363 357.516 125.138 357.34 124.96C357.137 124.772 356.893 124.634 356.628 124.556C356.362 124.478 356.083 124.462 355.81 124.51V124.51Z" fill="white"/>
<path opacity="0.7" d="M145.77 122.17C145.397 121.956 144.975 121.843 144.545 121.843C144.115 121.843 143.693 121.956 143.32 122.17C142.916 122.369 142.565 122.66 142.294 123.02C142.023 123.379 141.84 123.797 141.76 124.24C141.618 124.603 141.612 125.005 141.742 125.372C141.872 125.74 142.131 126.048 142.47 126.24C142.865 126.419 143.3 126.494 143.732 126.457C144.165 126.42 144.581 126.273 144.94 126.03C145.362 125.851 145.737 125.578 146.037 125.231C146.337 124.884 146.554 124.473 146.67 124.03C146.766 123.664 146.728 123.275 146.563 122.934C146.398 122.593 146.117 122.322 145.77 122.17V122.17Z" fill="white"/>
<path opacity="0.7" d="M215.75 116.41C215.337 116.141 214.866 115.974 214.376 115.922C213.886 115.87 213.39 115.934 212.93 116.11C212.521 116.185 212.153 116.404 211.891 116.727C211.629 117.049 211.491 117.454 211.5 117.87C211.553 118.341 211.726 118.791 212.003 119.176C212.279 119.561 212.65 119.869 213.08 120.07C213.479 120.363 213.939 120.561 214.426 120.65C214.913 120.738 215.414 120.714 215.89 120.58C216.289 120.463 216.633 120.208 216.859 119.859C217.085 119.51 217.177 119.091 217.12 118.68C217.112 118.214 216.981 117.759 216.741 117.36C216.5 116.961 216.158 116.633 215.75 116.41V116.41Z" fill="white"/>
<path opacity="0.7" d="M276.82 114.76C276.438 114.691 276.045 114.713 275.674 114.824C275.302 114.935 274.961 115.133 274.68 115.4C274.405 115.582 274.204 115.856 274.112 116.173C274.02 116.49 274.045 116.829 274.18 117.13C274.362 117.459 274.626 117.734 274.947 117.929C275.268 118.124 275.635 118.231 276.01 118.24C276.39 118.332 276.786 118.335 277.167 118.25C277.548 118.165 277.905 117.994 278.21 117.75C278.462 117.541 278.632 117.249 278.688 116.927C278.745 116.605 278.686 116.272 278.52 115.99C278.371 115.653 278.135 115.361 277.837 115.145C277.538 114.929 277.187 114.796 276.82 114.76V114.76Z" fill="white"/>
</g>
<path d="M88.37 23.4299L60.7 73.5999C59.7738 75.2576 58.6707 76.81 57.41 78.2299C55.9222 79.8298 54.1262 81.1121 52.13 81.9999C49.5676 83.1112 46.7917 83.6438 44 83.5599C41.2411 83.6065 38.5071 83.0324 36 81.8799C33.8903 80.9358 31.9796 79.5987 30.37 77.9399C29.1908 76.7744 28.2111 75.4231 27.47 73.9399L0 23.4299H19.06L41 62.8999C41.4103 63.6984 41.8817 64.4641 42.41 65.1899C42.6053 65.3945 42.8445 65.552 43.1095 65.6507C43.3745 65.7495 43.6585 65.7868 43.94 65.7599C44.2433 65.7908 44.5497 65.7518 44.8357 65.6461C45.1216 65.5404 45.3797 65.3707 45.59 65.1499C46.1215 64.4403 46.5932 63.6877 47 62.8999L69.07 23.4299H88.37Z" fill="white"/>
<path d="M209.44 23.4299L181.77 73.5999C180.844 75.2576 179.741 76.81 178.48 78.2299C176.992 79.8298 175.196 81.1121 173.2 81.9999C170.64 83.1215 167.864 83.6644 165.07 83.5899C162.311 83.6365 159.577 83.0624 157.07 81.9099C154.96 80.9658 153.05 79.6287 151.44 77.9699C150.261 76.8044 149.281 75.4531 148.54 73.9699L121.07 23.4299H140.13L162.05 62.8999C162.46 63.6984 162.932 64.4641 163.46 65.1899C163.655 65.3945 163.895 65.552 164.16 65.6507C164.425 65.7495 164.709 65.7868 164.99 65.7599C165.293 65.7908 165.6 65.7518 165.886 65.6461C166.172 65.5404 166.43 65.3707 166.64 65.1499C167.172 64.4403 167.643 63.6877 168.05 62.8999L190.14 23.4299H209.44Z" fill="white"/>
<path d="M293.49 81.9999H275.94V77.8899C275.305 79.0706 274.338 80.0402 273.16 80.6799C272.056 81.4574 270.758 81.9143 269.41 81.9999H221.85C220.467 81.9624 219.111 81.5986 217.895 80.9383C216.679 80.278 215.635 79.3397 214.85 78.1999C214.04 77.0222 213.601 75.6291 213.59 74.1999C213.59 71.3099 213.52 67.6699 213.48 63.2599C213.44 58.8499 213.42 56.5199 213.42 56.2599C213.233 53.4142 214.158 50.6068 216 48.4299C216.76 47.5448 217.702 46.8339 218.762 46.3455C219.821 45.8572 220.973 45.6029 222.14 45.5999H267.14C269.071 45.5584 270.967 46.1137 272.57 47.1899C273.884 48.0201 275.023 49.1006 275.92 50.3699V44.9999C275.89 43.7986 275.545 42.6261 274.92 41.5999C274.224 40.4267 273.248 39.4441 272.08 38.7399C270.786 37.9629 269.299 37.5677 267.79 37.5999H214V23.4299H274.7C277.244 23.4301 279.745 24.077 281.97 25.3099C284.243 26.5695 286.274 28.2217 287.97 30.1899C289.61 32.0552 290.968 34.1508 292 36.4099C292.883 38.2068 293.377 40.1694 293.45 42.1699L293.49 81.9999ZM272.59 63.7899C272.575 63.0445 272.282 62.3315 271.77 61.7899C271.213 61.1659 270.532 60.6652 269.77 60.3199C269.168 60.0052 268.508 59.8179 267.83 59.7699H234.63C234.007 59.7086 233.379 59.8209 232.816 60.0945C232.253 60.3681 231.777 60.7922 231.44 61.3199C230.958 62.0419 230.653 62.8677 230.55 63.7299C230.527 64.2679 230.618 64.8047 230.818 65.3046C231.018 65.8046 231.322 66.2563 231.71 66.6299C232.32 67.2884 233.163 67.683 234.06 67.7299H268.75C269.699 67.6473 270.584 67.2205 271.24 66.5299C271.657 66.1974 271.994 65.7763 272.227 65.2971C272.461 64.818 272.585 64.2929 272.59 63.7599V63.7899Z" fill="white"/>
<path d="M99.37 18.38C97.8651 17.5181 96.616 16.2724 95.7499 14.77C94.8485 13.2593 94.3813 11.5291 94.3999 9.76998C94.3846 8.03648 94.8521 6.33292 95.7499 4.84998C96.6303 3.37165 97.8771 2.14546 99.37 1.28998C100.889 0.412975 102.616 -0.0426971 104.37 -0.0300158C106.086 -0.0408514 107.773 0.415442 109.25 1.28998C110.727 2.16176 111.958 3.39341 112.83 4.86998C113.714 6.351 114.177 8.04516 114.17 9.76998C114.187 11.5276 113.724 13.2565 112.83 14.77C111.968 16.2616 110.734 17.5052 109.25 18.38C107.773 19.2545 106.086 19.7108 104.37 19.7C102.616 19.7127 100.889 19.257 99.37 18.38V18.38Z" fill="#FF7600"/>
<path d="M112.58 23.6399H95.97V84.0699H112.58V23.6399Z" fill="white"/>
<path d="M378.91 56.9999C378.281 55.4911 377.461 54.0694 376.47 52.7699L374.33 50.9199C374.65 50.4299 374.98 49.9199 375.33 49.4299C376.027 48.4344 376.56 47.3338 376.91 46.1699C377.2 45.1699 377.48 44.2299 377.74 43.2699L377.8 43.0799V42.8699C377.8 41.3499 377.8 39.8699 377.68 38.2999C377.593 36.6556 377.182 35.0446 376.47 33.5599C375.827 32.2149 375.071 30.9269 374.21 29.7099L374.1 29.5699C373.051 28.3979 371.834 27.387 370.49 26.5699C369.221 25.8094 367.881 25.1731 366.49 24.6699C365.13 24.1799 363.78 23.7699 362.49 23.4399H324.18L320.54 24.4399C319.309 24.7836 318.121 25.2668 317 25.8799C315.875 26.5304 314.811 27.2801 313.82 28.1199L313.69 28.2399C312.844 29.1495 312.078 30.1297 311.4 31.1699C310.709 32.2396 310.132 33.3792 309.68 34.5699C309.217 35.7405 308.882 36.9575 308.68 38.1999V38.3099C308.566 39.9114 308.623 41.5206 308.85 43.1099C309.078 44.7367 309.582 46.3127 310.34 47.7699C310.86 48.7693 311.469 49.7198 312.16 50.6099C311.086 51.5845 310.126 52.6782 309.3 53.8699C308.453 55.0931 307.761 56.4165 307.24 57.8099C306.702 59.1878 306.365 60.636 306.24 62.1099C306.13 63.8382 306.13 65.5717 306.24 67.2999C306.353 69.1389 306.811 70.9401 307.59 72.6099C308.362 74.2476 309.354 75.7718 310.54 77.1399L310.61 77.2099C311.786 78.3744 313.107 79.3827 314.54 80.2099C315.92 81.0163 317.39 81.6574 318.92 82.1199C320.437 82.5773 321.994 82.8888 323.57 83.0499H362.82H362.91C364.2 82.8899 365.5 82.6699 366.78 82.3999C368.144 82.1125 369.47 81.6661 370.73 81.0699C372.04 80.4558 373.264 79.6725 374.37 78.7399C375.561 77.6633 376.618 76.4479 377.52 75.1199C378.432 73.7847 379.133 72.3177 379.6 70.7699C380.049 69.2959 380.334 67.7766 380.45 66.2399V66.1199C380.449 64.5605 380.335 63.0031 380.11 61.4599C379.892 59.9302 379.489 58.4326 378.91 56.9999V56.9999ZM360.71 34.5999C361.21 34.6999 361.71 34.8099 362.25 34.9499C362.736 35.0828 363.203 35.2777 363.64 35.5299C364.131 35.8321 364.602 36.1661 365.05 36.5299C365.357 36.8368 365.635 37.1716 365.88 37.5299C366.074 37.8017 366.216 38.1068 366.3 38.4299L366.67 39.7699C366.48 43.1499 364.94 44.8999 361.67 45.4299L324.8 45.5899C324.34 45.4599 323.88 45.2999 323.44 45.1299C322.979 44.9608 322.531 44.7569 322.1 44.5199C321.76 44.3299 321.39 44.0899 321 43.8199L320 41.7199V39.7199C319.981 39.1989 320.076 38.68 320.28 38.1999C320.51 37.7209 320.781 37.2625 321.09 36.8299C321.54 36.4799 322.03 36.1199 322.56 35.7699C323.035 35.4484 323.549 35.1896 324.09 34.9999C324.619 34.8258 325.161 34.6921 325.71 34.5999H360.71ZM322.24 57.7699C322.87 57.5299 323.48 57.2699 324.07 57.0099H362.52L364.01 57.4799C364.512 57.6444 365 57.8484 365.47 58.0899C365.906 58.3279 366.32 58.6022 366.71 58.9099C367.173 59.3768 367.607 59.871 368.01 60.3899C368.325 60.7959 368.568 61.2524 368.73 61.7399C368.922 62.3533 369.059 62.9824 369.14 63.6199C369.175 65.0223 369.054 66.4242 368.78 67.7999C368.19 68.8567 367.367 69.7658 366.375 70.4587C365.382 71.1515 364.245 71.6101 363.05 71.7999L323.49 71.7199C322.98 71.6299 322.49 71.5099 321.96 71.3799C321.472 71.2472 321.004 71.0487 320.57 70.7899C320.077 70.4904 319.606 70.1563 319.16 69.7899C318.79 69.4376 318.482 69.0251 318.25 68.5699C318.025 68.0975 317.845 67.6054 317.71 67.0999C317.565 66.5299 317.452 65.9524 317.37 65.3699C317.372 64.6998 317.429 64.0309 317.54 63.3699C317.647 62.7407 317.828 62.1264 318.08 61.5399C318.32 60.9599 318.59 60.3899 318.9 59.8099C319.35 59.3851 319.846 59.0127 320.38 58.6999C320.973 58.3381 321.595 58.027 322.24 57.7699Z" fill="#FF7600"/>
<path d="M461.17 61.4799C460.942 59.9415 460.525 58.4369 459.93 57C459.301 55.4933 458.485 54.0721 457.5 52.77L455.35 50.9199C455.67 50.4399 456 49.92 456.35 49.43C457.047 48.4344 457.58 47.3338 457.93 46.1699C458.22 45.1699 458.5 44.23 458.77 43.27L458.82 43.08V42.8699C458.82 41.3699 458.82 39.8699 458.7 38.2999C458.613 36.6556 458.202 35.0447 457.49 33.56C456.851 32.2129 456.095 30.9246 455.23 29.7099L455.12 29.58C454.077 28.401 452.86 27.3892 451.51 26.58C450.242 25.8171 448.902 25.1807 447.51 24.68C446.15 24.19 444.81 23.78 443.51 23.45H405.2L401.57 24.45C400.328 24.7853 399.13 25.2653 398 25.8799C396.873 26.527 395.809 27.2769 394.82 28.12L394.69 28.25C393.842 29.154 393.076 30.1311 392.4 31.17C391.71 32.2407 391.134 33.3801 390.68 34.57C390.234 35.7424 389.916 36.9594 389.73 38.2V38.31C389.62 39.9115 389.677 41.5201 389.9 43.11C390.127 44.7383 390.634 46.315 391.4 47.77C391.918 48.7685 392.523 49.719 393.21 50.61C392.137 51.5852 391.177 52.6788 390.35 53.8699C389.507 55.0953 388.815 56.4183 388.29 57.81C387.756 59.1892 387.42 60.6368 387.29 62.11C387.18 63.8382 387.18 65.5717 387.29 67.3C387.407 69.1395 387.868 70.9407 388.65 72.61C389.414 74.2517 390.408 75.7769 391.6 77.1399L391.67 77.2099C392.844 78.3769 394.165 79.3854 395.6 80.2099C396.984 81.0306 398.461 81.682 400 82.15C401.52 82.6083 403.081 82.9197 404.66 83.08H443.9H444C445.28 82.92 446.58 82.7 447.86 82.43C449.224 82.1425 450.55 81.6961 451.81 81.0999C453.12 80.4858 454.344 79.7025 455.45 78.7699C456.641 77.6933 457.698 76.478 458.6 75.15C459.511 73.8128 460.215 72.3464 460.69 70.8C461.131 69.3238 461.416 67.8055 461.54 66.2699V66.15C461.529 64.5864 461.405 63.0258 461.17 61.4799ZM441.74 34.5499C442.24 34.6499 442.74 34.76 443.27 34.9C443.757 35.0311 444.224 35.2261 444.66 35.4799C445.153 35.7844 445.627 36.1183 446.08 36.4799C446.379 36.7916 446.653 37.1259 446.9 37.4799C447.091 37.7547 447.236 38.0586 447.33 38.38L447.7 39.72C447.51 43.1 445.96 44.85 442.7 45.38L405.84 45.54C405.378 45.4122 404.924 45.2586 404.48 45.08C404.019 44.9086 403.572 44.7047 403.14 44.47C402.8 44.28 402.42 44.04 402.03 43.77L401.03 41.6699V39.6699C401.014 39.1481 401.113 38.6291 401.32 38.15C401.551 37.6731 401.818 37.215 402.12 36.7799C402.57 36.4299 403.06 36.07 403.59 35.72C404.066 35.4004 404.58 35.1417 405.12 34.95C405.649 34.7768 406.191 34.6431 406.74 34.5499H441.74ZM403.26 57.77C403.89 57.53 404.5 57.2699 405.1 57.0099H443.55L445.03 57.4799C445.535 57.6446 446.027 57.8486 446.5 58.09C446.931 58.3305 447.342 58.6047 447.73 58.91C448.179 59.3804 448.603 59.8745 449 60.3899C449.306 60.7964 449.546 61.2486 449.71 61.7299C449.909 62.3447 450.047 62.9779 450.12 63.6199C450.162 65.022 450.044 66.4243 449.77 67.8C449.176 68.8535 448.352 69.76 447.36 70.4523C446.369 71.1447 445.234 71.6053 444.04 71.8L404.47 71.72C403.97 71.63 403.47 71.5099 402.95 71.3799C402.459 71.2472 401.988 71.0487 401.55 70.79C401.057 70.4905 400.586 70.1563 400.14 69.79C399.773 69.435 399.466 69.023 399.23 68.57C399.004 68.099 398.827 67.6065 398.7 67.0999C398.551 66.5304 398.434 65.9528 398.35 65.37C398.36 64.6997 398.42 64.0312 398.53 63.3699C398.638 62.7421 398.816 62.1284 399.06 61.54C399.3 60.96 399.58 60.39 399.88 59.81C400.33 59.3851 400.826 59.0127 401.36 58.7C401.967 58.3381 402.602 58.027 403.26 57.77V57.77Z" fill="#FF7600"/>
</g>
<defs>
<clipPath id="clip0_1959:163162">
<rect width="461.5" height="147.25" fill="white"/>
</clipPath>
</defs>
</svg>
